# Blender 4.0.2
# www.blender.org
mtllib haybale.mtl
o Cube
v -0.573145 0.265186 0.472274
v -0.573145 1.051499 0.472274
v -0.573145 0.265186 -0.472274
v -0.573145 1.051499 -0.472274
v 0.573145 0.265186 0.472274
v 0.573145 1.051499 0.472274
v 0.573145 0.265186 -0.472274
v 0.573145 1.051499 -0.472274
v -0.573145 0.265186 -0.000000
v -0.573145 1.051499 -0.000000
v 0.573145 0.265186 -0.000000
v 0.573145 1.051499 -0.000000
v -0.573145 1.051499 -0.236137
v 0.573145 0.265186 -0.236137
v -0.573145 0.265186 -0.236137
v 0.573145 1.051499 -0.236137
v -0.573145 0.265186 0.236137
v 0.573145 1.051499 0.236137
v -0.573145 1.051499 0.236137
v 0.573145 0.265186 0.236137
v -0.573145 0.658343 0.472274
v -0.573145 0.658343 -0.472274
v 0.573145 0.658343 -0.472274
v 0.573145 0.658343 0.472274
v 0.742755 0.658343 -0.236137
v -0.742755 0.658343 -0.236137
v -0.742755 0.658343 0.236137
v 0.742755 0.658343 0.236137
v -0.573145 0.854921 0.472274
v -0.573145 0.854921 -0.472274
v 0.573145 0.854921 -0.472274
v 0.573145 0.854921 0.472274
v 0.742755 0.854921 -0.000000
v -0.742755 0.854921 -0.000000
v 0.742755 0.854921 -0.236137
v -0.742755 0.854921 -0.236137
v -0.742755 0.854921 0.236137
v 0.742755 0.854921 0.236137
v -0.573145 0.461765 -0.472274
v 0.573145 0.461765 -0.472274
v 0.573145 0.461765 0.472274
v 0.742755 0.461765 -0.000000
v -0.742755 0.461765 -0.000000
v 0.742755 0.461765 -0.236137
v -0.742755 0.461765 -0.236137
v -0.742755 0.461765 0.236137
v 0.742755 0.461765 0.236137
v -0.573145 0.461765 0.472274
v 0.000000 0.265186 -0.472274
v 0.000000 1.051499 -0.472274
v 0.000000 0.265186 0.472274
v 0.000000 1.051499 0.472274
v -0.286572 0.265186 -0.472274
v -0.286572 1.051499 0.472274
v -0.286572 1.051499 -0.472274
v -0.286572 0.265186 0.472274
v 0.286572 1.051499 -0.472274
v 0.286572 0.265186 0.472274
v 0.286572 0.265186 -0.472274
v 0.286572 1.051499 0.472274
v 0.429859 1.051499 -0.472274
v 0.429859 0.265186 0.472274
v 0.429859 1.051499 -0.000000
v 0.429859 1.051499 -0.236137
v 0.429859 1.051499 0.236137
v 0.429859 0.658343 -0.472274
v 0.429859 0.854921 -0.472274
v 0.429859 0.461765 -0.472274
v 0.429859 0.265186 -0.472274
v 0.429859 1.051499 0.472274
v 0.429859 0.265186 -0.000000
v 0.429859 0.265186 -0.236137
v 0.429859 0.265186 0.236137
v 0.429859 0.658343 0.472274
v 0.429859 0.854921 0.472274
v 0.429859 0.461765 0.472274
v -0.429859 0.265186 -0.472274
v -0.429859 1.051499 0.472274
v -0.429859 0.265186 -0.000000
v -0.429859 0.265186 -0.236137
v -0.429859 0.265186 0.236137
v -0.429859 0.658343 0.472274
v -0.429859 0.854921 0.472274
v -0.429859 0.461765 0.472274
v -0.429859 1.051499 -0.472274
v -0.429859 0.265186 0.472274
v -0.429859 1.051499 -0.000000
v -0.429859 1.051499 -0.236137
v -0.429859 1.051499 0.236137
v -0.429859 0.658343 -0.472274
v -0.429859 0.854921 -0.472274
v -0.429859 0.461765 -0.472274
v -0.358215 1.051499 -0.472274
v -0.358215 0.265186 0.472274
v -0.358215 1.051499 -0.000000
v -0.358215 1.051499 -0.236137
v -0.358215 1.051499 0.236137
v -0.358215 0.658343 -0.472274
v -0.358215 0.854921 -0.472274
v -0.358215 0.461765 -0.472274
v -0.358215 0.265186 -0.472274
v -0.358215 1.051499 0.472274
v -0.358215 0.265186 -0.000000
v -0.358215 0.265186 -0.236137
v -0.358215 0.265186 0.236137
v -0.358215 0.658343 0.472274
v -0.358215 0.854921 0.472274
v -0.358215 0.461765 0.472274
v 0.358215 0.265186 -0.472274
v 0.358215 1.051499 0.472274
v 0.358215 0.265186 -0.000000
v 0.358215 0.265186 -0.236137
v 0.358215 0.265186 0.236137
v 0.358215 0.658343 0.472274
v 0.358215 0.854921 0.472274
v 0.358215 0.461765 0.472274
v 0.358215 1.051499 -0.472274
v 0.358215 0.265186 0.472274
v 0.358215 1.051499 -0.000000
v 0.358215 1.051499 -0.236137
v 0.358215 1.051499 0.236137
v 0.358215 0.658343 -0.472274
v 0.358215 0.854921 -0.472274
v 0.358215 0.461765 -0.472274
v 0.358215 0.265186 0.487401
v 0.429859 0.265186 0.487401
v 0.429859 0.461765 0.487401
v 0.429859 0.854921 0.487401
v 0.429859 0.658343 0.487401
v 0.429859 1.051499 0.487401
v -0.358215 1.051499 0.487401
v -0.429859 1.051499 0.487401
v -0.358215 0.658343 0.487401
v -0.429859 0.658343 0.487401
v -0.358215 0.854921 0.487401
v -0.429859 0.854921 0.487401
v -0.358215 0.461765 0.487401
v -0.429859 0.461765 0.487401
v -0.429859 0.265186 0.487401
v -0.358215 0.265186 0.487401
v 0.358215 1.051499 0.487401
v 0.358215 0.658343 0.487401
v 0.358215 0.854921 0.487401
v 0.358215 0.461765 0.487401
v 0.358215 1.051499 -0.486333
v 0.429859 1.051499 -0.486333
v 0.358215 0.658343 -0.486333
v 0.429859 0.658343 -0.486333
v 0.358215 0.854921 -0.486333
v 0.429859 0.854921 -0.486333
v 0.358215 0.461765 -0.486333
v 0.429859 0.461765 -0.486333
v 0.429859 0.265186 -0.486333
v -0.358215 0.265186 -0.486333
v -0.429859 0.265186 -0.486333
v -0.429859 0.461765 -0.486333
v -0.429859 0.854921 -0.486333
v -0.429859 0.658343 -0.486333
v -0.429859 1.051499 -0.486333
v -0.358215 1.051499 -0.486333
v -0.358215 0.658343 -0.486333
v -0.358215 0.854921 -0.486333
v -0.358215 0.461765 -0.486333
v 0.358215 0.265186 -0.486333
v 0.358215 1.064821 -0.472274
v 0.429859 1.064821 -0.472274
v 0.358215 1.064821 -0.000000
v 0.429859 1.064821 -0.000000
v 0.358215 1.064821 -0.236137
v 0.429859 1.064821 -0.236137
v 0.358215 1.064821 0.236137
v 0.429859 1.064821 0.236137
v 0.358215 1.064821 -0.486333
v 0.429859 1.064821 0.472274
v -0.358215 1.064821 0.472274
v -0.429859 1.064821 0.472274
v -0.429859 1.064821 -0.000000
v -0.429859 1.064821 0.236137
v -0.429859 1.064821 -0.472274
v -0.429859 1.064821 -0.236137
v -0.358215 1.064821 -0.472274
v -0.358215 1.064821 -0.000000
v -0.358215 1.064821 -0.236137
v -0.358215 1.064821 0.236137
v 0.358215 1.064821 0.472274
v -0.358215 1.064821 0.487401
v -0.429859 1.064821 0.487401
v 0.429859 1.064821 0.487401
v 0.358215 1.064821 0.487401
v 0.429859 1.064821 -0.486333
v -0.429859 1.064821 -0.486333
v -0.358215 1.064821 -0.486333
vn 0.7571 -0.6533 -0.0000
vn -0.0000 1.0000 -0.0000
vn -0.8122 -0.0000 -0.5834
vn -0.0000 -0.0000 -1.0000
vn -0.8122 -0.0000 0.5834
vn 0.8122 -0.0000 0.5834
vn 1.0000 -0.0000 -0.0000
vn -0.0000 -1.0000 -0.0000
vn -0.0000 -0.0000 1.0000
vn -1.0000 -0.0000 -0.0000
vn 0.7571 0.6533 -0.0000
vn -0.7571 0.6533 -0.0000
vn -0.7571 -0.6533 -0.0000
vn 0.8122 -0.0000 -0.5834
vt 0.437500 0.687500
vt 0.375000 0.750000
vt 0.375000 0.687500
vt 0.375000 0.625000
vt 0.375000 0.562500
vt 0.375000 0.500000
vt 0.437500 0.562500
vt 0.437500 0.625000
vt 0.656250 0.625000
vt 0.656250 0.687500
vt 0.656250 0.750000
vt 0.625000 0.750000
vt 0.625000 0.687500
vt 0.625000 0.625000
vt 0.625000 0.562500
vt 0.625000 0.500000
vt 0.656250 0.500000
vt 0.656250 0.562500
vt 0.562500 0.187500
vt 0.625000 0.250000
vt 0.562500 0.250000
vt 0.500000 0.250000
vt 0.437500 0.250000
vt 0.375000 0.250000
vt 0.437500 0.187500
vt 0.500000 0.187500
vt 0.625000 0.281250
vt 0.562500 0.281250
vt 0.500000 0.281250
vt 0.437500 0.281250
vt 0.375000 0.281250
vt 0.562500 0.000000
vt 0.625000 0.000000
vt 0.562500 0.062500
vt 0.500000 0.062500
vt 0.437500 0.062500
vt 0.375000 0.000000
vt 0.437500 0.000000
vt 0.500000 0.000000
vt 0.750000 0.750000
vt 0.687500 0.750000
vt 0.671875 0.750000
vt 0.671875 0.687500
vt 0.671875 0.625000
vt 0.671875 0.562500
vt 0.671875 0.500000
vt 0.687500 0.500000
vt 0.750000 0.500000
vt 0.812500 0.500000
vt 0.828125 0.500000
vt 0.828125 0.562500
vt 0.828125 0.625000
vt 0.828125 0.687500
vt 0.828125 0.750000
vt 0.812500 0.750000
vt 0.562500 0.687500
vt 0.562500 0.750000
vt 0.500000 0.750000
vt 0.437500 0.750000
vt 0.500000 0.687500
vt 0.500000 0.296875
vt 0.437500 0.296875
vt 0.375000 0.296875
vt 0.562500 0.296875
vt 0.625000 0.296875
vt 0.250000 0.750000
vt 0.187500 0.750000
vt 0.171875 0.750000
vt 0.171875 0.687500
vt 0.171875 0.625000
vt 0.171875 0.562500
vt 0.171875 0.500000
vt 0.187500 0.500000
vt 0.250000 0.500000
vt 0.312500 0.500000
vt 0.328125 0.500000
vt 0.328125 0.562500
vt 0.328125 0.625000
vt 0.328125 0.687500
vt 0.328125 0.750000
vt 0.312500 0.750000
vt 0.375000 0.375000
vt 0.375000 0.312500
vt 0.625000 0.312500
vt 0.625000 0.375000
vt 0.625000 0.437500
vt 0.625000 0.453125
vt 0.562500 0.453125
vt 0.500000 0.453125
vt 0.437500 0.453125
vt 0.375000 0.453125
vt 0.375000 0.437500
vt 0.625000 0.781250
vt 0.625000 0.796875
vt 0.562500 0.796875
vt 0.500000 0.796875
vt 0.437500 0.796875
vt 0.375000 0.796875
vt 0.375000 0.781250
vt 0.437500 0.781250
vt 0.500000 0.781250
vt 0.562500 0.781250
vt 0.562500 0.468750
vt 0.500000 0.468750
vt 0.437500 0.468750
vt 0.375000 0.468750
vt 0.625000 0.468750
vt 0.875000 0.687500
vt 0.875000 0.750000
vt 0.843750 0.750000
vt 0.843750 0.687500
vt 0.843750 0.625000
vt 0.843750 0.562500
vt 0.843750 0.500000
vt 0.875000 0.500000
vt 0.875000 0.562500
vt 0.875000 0.625000
vt 0.562500 0.500000
vt 0.500000 0.500000
vt 0.437500 0.500000
vt 0.562500 0.968750
vt 0.625000 0.968750
vt 0.625000 1.000000
vt 0.562500 1.000000
vt 0.500000 1.000000
vt 0.437500 1.000000
vt 0.375000 1.000000
vt 0.375000 0.968750
vt 0.437500 0.968750
vt 0.500000 0.968750
vt 0.156250 0.625000
vt 0.156250 0.687500
vt 0.156250 0.750000
vt 0.125000 0.750000
vt 0.125000 0.687500
vt 0.125000 0.625000
vt 0.125000 0.562500
vt 0.125000 0.500000
vt 0.156250 0.500000
vt 0.156250 0.562500
vt 0.437500 0.125000
vt 0.562500 0.125000
vt 0.625000 0.953125
vt 0.375000 0.953125
vt 0.437500 0.953125
vt 0.500000 0.953125
vt 0.562500 0.953125
vt 0.562500 0.625000
vt 0.562500 0.562500
vt 0.343750 0.625000
vt 0.343750 0.687500
vt 0.343750 0.750000
vt 0.343750 0.500000
vt 0.343750 0.562500
vt 0.375000 0.875000
vt 0.375000 0.812500
vt 0.625000 0.812500
vt 0.625000 0.875000
vt 0.625000 0.937500
vt 0.375000 0.937500
vt 0.625000 0.062500
vt 0.625000 0.125000
vt 0.625000 0.187500
vt 0.375000 0.187500
vt 0.375000 0.125000
vt 0.375000 0.062500
vt 0.500000 0.562500
s 0
f 47/1/1 5/2/1 20/3/1 11/4/1 14/5/1 7/6/1 44/7/1 42/8/1
f 63/9/2 65/10/2 70/11/2 6/12/2 18/13/2 12/14/2 16/15/2 8/16/2 61/17/2 64/18/2
f 36/19/3 4/20/3 30/21/3 22/22/3 39/23/3 3/24/3 45/25/3 26/26/3
f 3/24/4 39/23/4 22/22/4 30/21/4 4/20/4 85/27/4 91/28/4 90/29/4 92/30/4 77/31/4
f 29/32/5 2/33/5 37/34/5 27/35/5 46/36/5 1/37/5 48/38/5 21/39/5
f 52/40/2 60/41/2 110/42/2 121/43/2 119/44/2 120/45/2 117/46/2 57/47/2 50/48/2 55/49/2 93/50/2 96/51/2 95/52/2 97/53/2 102/54/2 54/55/2
f 38/56/6 6/12/6 32/57/6 24/58/6 41/59/6 5/2/6 47/1/6 28/60/6
f 98/61/7 100/62/7 101/63/7 154/63/7 163/62/7 161/61/7 162/64/7 160/65/7 93/65/7 99/64/7
f 51/66/8 56/67/8 94/68/8 105/69/8 103/70/8 104/71/8 101/72/8 53/73/8 49/74/8 59/75/8 109/76/8 112/77/8 111/78/8 113/79/8 118/80/8 58/81/8
f 49/82/4 53/83/4 101/63/4 100/62/4 98/61/4 99/64/4 93/65/4 55/84/4 50/85/4 57/86/4 117/87/4 123/88/4 122/89/4 124/90/4 109/91/4 59/92/4
f 130/93/9 188/93/9 189/94/9 141/94/9 143/95/9 142/96/9 144/97/9 125/98/9 126/99/9 127/100/9 129/101/9 128/102/9
f 167/44/2 171/43/2 185/42/2 189/42/2 188/11/2 174/11/2 172/10/2 168/9/2 170/18/2 166/17/2 190/17/2 173/46/2 165/46/2 169/45/2
f 145/87/10 117/87/10 165/87/10 173/87/10
f 5/2/9 41/59/9 24/58/9 32/57/9 6/12/9 70/93/9 75/102/9 74/101/9 76/100/9 62/99/9
f 67/103/7 66/104/7 68/105/7 69/106/7 153/106/7 152/105/7 148/104/7 150/103/7 146/107/7 61/107/7
f 19/108/2 2/109/2 78/110/2 89/111/2 87/112/2 88/113/2 85/114/2 4/115/2 13/116/2 10/117/2
f 121/43/10 110/42/10 185/42/10 171/43/10 167/44/10 169/45/10 165/46/10 117/46/10 120/45/10 119/44/10
f 67/103/4 61/107/4 8/16/4 31/118/4 23/119/4 40/120/4 7/6/4 69/106/4 68/105/4 66/104/4
f 83/121/9 78/122/9 2/123/9 29/124/9 21/125/9 48/126/9 1/127/9 86/128/9 84/129/9 82/130/9
f 79/131/8 81/132/8 86/133/8 1/134/8 17/135/8 9/136/8 15/137/8 3/138/8 77/139/8 80/140/8
f 26/26/10 45/25/10 43/141/10 46/36/10 27/35/10 37/34/10 34/142/10 36/19/10
f 131/143/9 186/143/9 187/122/9 132/122/9 136/121/9 134/130/9 138/129/9 139/128/9 140/144/9 137/145/9 133/146/9 135/147/9
f 16/15/11 12/14/11 18/13/11 6/12/11 38/56/11 33/148/11 35/149/11 8/16/11
f 71/150/8 73/151/8 62/152/8 126/152/8 125/80/8 118/80/8 113/79/8 111/78/8 112/77/8 109/76/8 164/76/8 153/153/8 69/153/8 72/154/8
f 108/145/7 106/146/7 107/147/7 102/143/7 131/143/7 135/147/7 133/146/7 137/145/7 140/144/7 94/144/7
f 78/122/10 83/121/10 82/130/10 84/129/10 86/128/10 139/128/10 138/129/10 134/130/10 136/121/10 132/122/10
f 76/100/7 74/101/7 75/102/7 70/93/7 130/93/7 128/102/7 129/101/7 127/100/7 126/99/7 62/99/7
f 177/112/2 178/111/2 176/110/2 187/110/2 186/54/2 175/54/2 184/53/2 182/52/2 183/51/2 181/50/2 192/50/2 191/114/2 179/114/2 180/113/2
f 123/88/10 117/87/10 145/87/10 149/88/10 147/89/10 151/90/10 164/91/10 109/91/10 124/90/10 122/89/10
f 85/114/10 88/113/10 87/112/10 89/111/10 78/110/10 176/110/10 178/111/10 177/112/10 180/113/10 179/114/10
f 155/31/4 156/30/4 158/29/4 157/28/4 159/27/4 191/27/4 192/65/4 160/65/4 162/64/4 161/61/4 163/62/4 154/63/4
f 77/139/8 155/139/8 154/72/8 101/72/8 104/71/8 103/70/8 105/69/8 94/68/8 140/68/8 139/133/8 86/133/8 81/132/8 79/131/8 80/140/8
f 131/143/7 102/143/7 175/143/7 186/143/7
f 114/96/10 116/97/10 118/98/10 125/98/10 144/97/10 142/96/10 143/95/10 141/94/10 110/94/10 115/95/10
f 64/18/7 61/107/7 146/107/7 190/107/7 166/17/7 170/18/7 168/9/7 172/10/7 174/93/7 188/93/7 130/93/7 70/11/7 65/10/7 63/9/7
f 97/53/7 95/52/7 96/51/7 93/50/7 181/50/7 183/51/7 182/52/7 184/53/7 175/54/7 102/54/7
f 159/27/10 85/27/10 179/27/10 191/27/10
f 110/94/10 141/94/10 189/94/10 185/94/10
f 93/65/7 160/65/7 192/65/7 181/65/7
f 164/91/4 151/90/4 147/89/4 149/88/4 145/87/4 173/87/4 190/107/4 146/107/4 150/103/4 148/104/4 152/105/4 153/106/4
f 78/122/10 132/122/10 187/122/10 176/122/10
f 91/28/10 85/27/10 159/27/10 157/28/10 158/29/10 156/30/10 155/31/10 77/31/10 92/30/10 90/29/10
f 51/155/9 58/156/9 118/98/9 116/97/9 114/96/9 115/95/9 110/94/9 60/157/9 52/158/9 54/159/9 102/143/9 107/147/9 106/146/9 108/145/9 94/144/9 56/160/9
f 19/161/12 10/162/12 13/163/12 4/20/12 36/19/12 34/142/12 37/34/12 2/33/12
f 45/25/13 3/24/13 15/164/13 9/165/13 17/166/13 1/37/13 46/36/13 43/141/13
f 20/3/8 5/2/8 62/152/8 73/151/8 71/150/8 72/154/8 69/153/8 7/6/8 14/5/8 11/4/8
f 28/60/7 47/1/7 42/8/7 44/7/7 25/167/7 35/149/7 33/148/7 38/56/7
f 31/118/14 8/16/14 35/149/14 25/167/14 44/7/14 7/6/14 40/120/14 23/119/14
