# Blender 4.0.2
# www.blender.org
mtllib well.mtl
o Cylinder.001
v 0.096668 1.539375 -0.071449
v -0.312926 1.539375 -0.071449
v 0.096668 1.587666 0.000000
v -0.312926 1.587666 0.000000
v 0.096668 1.539375 0.071449
v -0.312926 1.539375 0.071449
v 0.096668 1.461239 0.044158
v -0.312926 1.461239 0.044158
v 0.096668 1.461239 -0.044158
v -0.312926 1.461239 -0.044158
v -0.132322 1.461230 -0.015222
v -0.132322 1.267885 -0.015222
v -0.122342 1.461230 0.013762
v -0.122342 1.267885 0.013762
v -0.091692 1.461230 0.013227
v -0.091692 1.267885 0.013227
v -0.082730 1.461230 -0.016088
v -0.082730 1.267885 -0.016088
v -0.107840 1.461230 -0.033670
v -0.107840 1.267885 -0.033670
v -0.023383 1.016786 -0.047998
v -0.023383 1.016786 0.035807
v -0.189889 1.016786 -0.047998
v -0.189889 1.016786 0.035807
v -0.106636 1.016786 -0.093151
v -0.106636 1.016786 0.080961
v -0.106636 1.161114 0.149774
v 0.048706 1.172886 0.068929
v -0.261977 1.172886 -0.081119
v 0.048706 1.172886 -0.081119
v -0.261977 1.172886 0.068929
v -0.269766 1.195185 -0.015473
v 0.056495 1.195185 -0.015473
v 0.048706 1.172886 -0.015473
v -0.261977 1.172886 -0.015473
v 0.056495 1.195185 0.003283
v 0.048706 1.172886 0.003283
v -0.261977 1.172886 0.003283
v -0.269766 1.195185 0.003283
v -0.106636 1.181391 -0.161964
v -0.252269 1.172886 0.003283
v 0.038997 1.172886 0.003283
v 0.038997 1.172886 -0.015473
v -0.253512 1.189204 -0.015947
v -0.253371 1.189204 0.003756
v 0.038477 1.172886 0.003283
v -0.252552 1.172886 -0.015473
v 0.039839 1.189204 0.003756
v 0.040099 1.189204 -0.015947
v -0.135708 1.271214 -0.022697
v -0.143595 1.280462 -0.023289
v -0.077599 1.271214 -0.022697
v -0.069677 1.280462 -0.023289
v -0.069677 1.280462 0.011099
v -0.077664 1.271214 0.010507
v -0.143595 1.280462 0.011099
v -0.135673 1.271214 0.010507
v -0.108129 0.800372 -0.579484
v -0.108129 0.799283 -0.774264
v 0.232483 0.800372 -0.468812
v 0.346972 0.799283 -0.626393
v 0.442993 0.800372 -0.179070
v 0.628240 0.799283 -0.239261
v 0.442993 0.800372 0.179070
v 0.628240 0.799283 0.239261
v 0.232483 0.800372 0.468812
v 0.346972 0.799283 0.626393
v -0.108129 0.800372 0.579484
v -0.108129 0.799283 0.774264
v -0.448741 0.800372 0.468812
v -0.563230 0.799283 0.626393
v -0.659251 0.800372 0.179070
v -0.844498 0.799283 0.239261
v -0.659251 0.800372 -0.179070
v -0.844498 0.799283 -0.239261
v -0.448741 0.800372 -0.468812
v -0.563230 0.799283 -0.626393
v 0.442993 0.800372 -0.089535
v 0.535616 0.799827 -0.104583
v 0.442993 0.800372 0.089535
v 0.535616 0.799827 0.104583
v -0.659251 0.800372 -0.089535
v -0.751874 0.799827 -0.104583
v -0.659251 0.800372 0.089535
v -0.751874 0.799827 0.104583
v -0.659251 1.889316 0.089535
v -0.751874 1.888771 0.104583
v 0.442993 1.889316 -0.089535
v 0.535616 1.888771 -0.104583
v 0.442993 1.889316 0.089535
v 0.535616 1.888771 0.104583
v -0.659251 1.889316 -0.089535
v -0.751874 1.888771 -0.104583
v 0.442993 2.010737 0.417576
v -0.659251 2.010737 -0.417576
v -0.751874 2.010193 -0.427804
v 0.442993 2.010737 -0.417576
v -0.659251 2.010737 0.089535
v -0.751874 2.010193 -0.104583
v -0.659251 2.010737 -0.089535
v -0.751874 2.010193 0.104583
v 0.535616 2.010193 0.104583
v 0.442993 2.010737 0.089535
v 0.535616 2.010193 -0.104583
v 0.442993 2.010737 -0.089535
v 0.535616 2.010193 0.427804
v 0.535616 2.010193 -0.427804
v -0.659251 2.253581 -0.089535
v -0.751874 2.253036 0.104583
v -0.659251 2.253581 0.089535
v -0.751874 2.253036 -0.104583
v 0.442993 2.253581 0.089535
v 0.535616 2.253036 -0.104583
v 0.442993 2.253581 -0.089535
v 0.535616 2.253036 0.104583
v 0.535616 1.344299 0.104583
v 0.535616 1.344299 -0.104583
v -0.659251 1.480962 0.089535
v -0.659251 1.480962 -0.089535
v -0.751874 1.480417 -0.104583
v -0.751874 1.480417 0.104583
v 0.442993 1.480962 -0.089535
v 0.442993 1.480962 0.089535
v 0.535616 1.480417 0.000000
v -0.659251 1.480962 0.044768
v -0.751874 1.480417 0.052291
v -0.659251 1.480962 -0.044768
v -0.751874 1.480417 -0.052291
v 0.535616 1.344299 0.052291
v 0.535616 1.480417 0.052291
v 0.442993 1.480962 0.044768
v 0.535616 1.344299 -0.052291
v 0.442993 1.480962 -0.044768
v 0.535616 1.480417 -0.052291
v -0.659251 1.549021 0.044768
v -0.751874 1.548476 0.052291
v -0.659251 1.549021 -0.044768
v -0.751874 1.548476 -0.052291
v 0.535616 1.548476 0.052291
v 0.442993 1.549021 0.044768
v 0.442993 1.549021 -0.044768
v 0.535616 1.548476 -0.052291
v 0.442993 1.514992 0.000000
v 0.442993 1.514992 0.044768
v 0.535616 1.888771 0.746178
v 0.442993 1.889316 0.743124
v -0.751874 1.888771 0.746178
v -0.659251 1.889316 0.743124
v 0.535616 2.437705 0.000000
v 0.442993 2.438250 0.000000
v 0.535616 1.888771 -0.746178
v 0.442993 1.889316 -0.743124
v -0.751874 1.888771 -0.746178
v -0.659251 1.889316 -0.743124
v -0.659251 2.438250 0.000000
v -0.751874 2.437705 0.000000
v -0.751874 2.010193 0.427804
v -0.659251 2.010737 0.417576
v 0.535616 2.010193 -0.580940
v 0.535616 2.437008 -0.001154
v 0.535616 2.360258 -0.104583
v 0.535616 2.361035 0.104583
v 0.535616 2.010193 0.581193
v 0.442993 2.372133 0.089535
v 0.442993 2.375002 0.085624
v 0.442993 1.984435 0.614400
v 0.442993 2.010737 0.578769
v 0.442993 1.984423 -0.614400
v 0.442993 2.375002 -0.085614
v 0.442993 2.010737 -0.578741
v 0.442993 2.372099 -0.089535
v -0.751874 2.010193 -0.581129
v -0.751874 2.010193 0.581130
v -0.659251 2.372108 -0.089535
v -0.659251 2.010737 -0.578745
v -0.659251 2.375002 -0.085612
v -0.659251 2.405185 -0.044768
v -0.659251 1.984428 -0.614400
v -0.659251 2.372141 0.089535
v -0.659251 2.010737 0.578762
v -0.659251 2.405189 0.044768
v -0.659251 2.375002 0.085627
v -0.659251 1.984387 0.614400
v -0.883180 1.480417 0.052291
v -0.883180 1.480417 -0.052291
v -0.883180 1.548476 0.052291
v -0.883180 1.548476 -0.052291
v 0.666921 1.548476 0.052291
v 0.666921 1.548476 -0.052291
v 0.442993 2.464977 -0.000000
v -0.751874 2.464432 -0.000000
v -0.751874 1.915498 -0.746178
v -0.659251 2.464977 -0.000000
v 0.535616 1.915498 0.746178
v -0.751874 1.915498 0.746178
v 0.535616 1.915498 -0.746178
v 0.535616 2.464432 -0.000000
v -0.108129 0.800372 -0.579484
v 0.232483 0.800372 -0.468812
v 0.442993 0.800372 -0.179070
v 0.442993 0.800372 0.089535
v 0.442993 0.800372 0.179070
v 0.232483 0.800372 0.468812
v -0.108129 0.800372 0.579484
v -0.448741 0.800372 0.468812
v -0.659251 0.800372 0.179070
v -0.659251 0.800372 -0.089535
v -0.659251 0.800372 -0.179070
v -0.448741 0.800372 -0.468812
v 0.346972 -0.044412 -0.626393
v 0.628240 -0.044412 -0.239261
v 0.628240 -0.044412 0.239261
v 0.346972 -0.044412 0.626393
v -0.108129 -0.044412 0.774264
v -0.563230 -0.044412 0.626393
v -0.844498 -0.044412 0.239261
v -0.844498 -0.044412 -0.239261
v -0.108129 -0.044412 -0.774264
v -0.563230 -0.044412 -0.626393
v 0.442993 0.140078 0.179070
v -0.448741 0.140078 -0.468812
v 0.232483 0.140078 -0.468812
v -0.659251 0.140078 -0.179070
v -0.659251 0.140078 0.179070
v -0.448741 0.140078 0.468812
v -0.108129 0.140078 0.579484
v 0.232483 0.140078 0.468812
v 0.442993 0.140078 -0.179070
v -0.108129 0.140078 -0.579484
v 0.601269 1.480417 -0.052291
v 0.601269 1.480417 0.052291
v 0.601269 1.338576 -0.052291
v 0.601269 1.338576 0.052291
v 0.666921 1.409497 -0.052291
v 0.666921 1.409497 0.052291
v 0.902746 1.338576 -0.052291
v 0.902746 1.338576 0.052291
v 0.902746 1.409497 -0.052291
v 0.902746 1.409497 0.052291
v -0.103251 0.709836 0.789418
v -0.103251 0.595189 0.789418
v -0.114411 0.709836 0.767171
v -0.114411 0.595189 0.767171
v 0.209812 0.709836 0.688642
v 0.209812 0.595189 0.688642
v 0.198652 0.709836 0.666396
v 0.198652 0.595189 0.666396
v 0.238991 0.144235 0.687080
v 0.238991 0.029588 0.687080
v 0.227832 0.144235 0.664834
v 0.227832 0.029588 0.664834
v 0.490003 0.144235 0.470935
v 0.490003 0.029588 0.470935
v 0.467882 0.144235 0.459529
v 0.467882 0.029588 0.459529
v 0.306097 0.144235 0.639640
v 0.306097 0.029588 0.639640
v 0.346850 0.029588 0.625670
v 0.362339 0.144235 0.646182
v 0.346850 0.144235 0.625670
v 0.362339 0.029588 0.646182
v -0.532282 0.392075 0.650691
v -0.533444 0.277433 0.650924
v -0.528290 0.391997 0.626126
v -0.529452 0.277354 0.626358
v -0.219557 0.389511 0.752474
v -0.220719 0.274869 0.752707
v -0.215565 0.389433 0.727908
v -0.216727 0.274791 0.728141
v 0.430538 0.510345 0.533465
v 0.430400 0.395703 0.534642
v 0.408415 0.510267 0.522063
v 0.408277 0.395625 0.523240
v 0.624142 0.507781 0.267619
v 0.624003 0.393139 0.268795
v 0.602019 0.507703 0.256217
v 0.601881 0.393061 0.257394
v -0.639939 0.092450 0.507350
v -0.638859 -0.022192 0.507837
v -0.657483 0.092372 0.525003
v -0.656402 -0.022270 0.525490
v -0.835003 0.089886 0.242574
v -0.833923 -0.024756 0.243061
v -0.852547 0.089808 0.260227
v -0.851467 -0.024834 0.260714
v -0.853708 0.579406 0.113474
v -0.853708 0.464759 0.113474
v -0.829085 0.579406 0.109850
v -0.829085 0.464759 0.109850
v -0.727123 0.579406 0.419583
v -0.727123 0.464759 0.419583
v -0.709358 0.579406 0.402151
v -0.709358 0.464759 0.402151
v -0.829690 0.579406 0.192068
v -0.829690 0.464759 0.192068
v -0.829196 0.464759 0.235146
v -0.853529 0.579406 0.243426
v -0.829196 0.579406 0.235146
v -0.853529 0.464759 0.243426
vn -0.0000 0.8285 -0.5600
vn -0.0000 0.8285 0.5600
vn -0.0000 -0.3297 0.9441
vn -1.0000 -0.0000 -0.0000
vn -0.0000 -1.0000 -0.0000
vn -0.0000 -0.3297 -0.9441
vn 1.0000 -0.0000 -0.0000
vn -0.9455 -0.0000 0.3256
vn 0.0175 -0.0000 0.9998
vn 0.9563 -0.0000 0.2924
vn 0.5736 -0.0000 -0.8192
vn -0.6018 -0.0000 -0.7986
vn -0.0000 1.0000 -0.0000
vn -0.9079 -0.4193 -0.0000
vn -0.4257 -0.3596 -0.8303
vn -0.0000 0.9990 0.0439
vn -0.4463 -0.3817 0.8094
vn 0.4463 -0.3817 0.8094
vn 0.9079 -0.4193 -0.0000
vn 0.4257 -0.3596 -0.8304
vn 0.9979 0.0631 -0.0110
vn -0.0000 -0.0480 0.9988
vn -0.0000 -0.0000 1.0000
vn -0.9970 0.0753 -0.0202
vn 0.0255 -0.0457 -0.9986
vn -0.9441 -0.3297 -0.0000
vn 0.9441 -0.3297 -0.0000
vn -0.5720 -0.8202 -0.0035
vn -0.0000 -0.0639 -0.9980
vn 0.5600 0.8285 -0.0000
vn -0.5600 0.8285 -0.0000
vn 0.5715 -0.8206 -0.0019
vn -0.8090 -0.0000 -0.5878
vn 0.8090 -0.0000 0.5878
vn 0.3090 -0.0000 0.9511
vn -0.3090 -0.0000 0.9511
vn -0.3090 -0.0000 -0.9511
vn 0.3090 -0.0000 -0.9511
vn 0.0059 -1.0000 -0.0000
vn 0.1604 -0.0000 -0.9871
vn 0.0059 1.0000 -0.0000
vn -0.1604 -0.0000 -0.9871
vn -0.0059 1.0000 -0.0000
vn 0.1604 -0.0000 0.9871
vn -0.0766 -0.7993 0.5961
vn -0.0059 -1.0000 -0.0000
vn 0.0766 -0.7993 0.5961
vn -0.1604 -0.0000 0.9871
vn -0.0000 -0.0000 -1.0000
vn -0.0000 0.8052 -0.5929
vn -0.0000 0.8052 0.5929
vn 0.0766 -0.7993 -0.5961
vn -0.0766 -0.7993 -0.5961
vn -0.0000 -0.1075 0.9942
vn -0.0000 -0.1075 -0.9942
vn -0.8090 -0.0000 0.5878
vn 0.8090 -0.0000 -0.5878
vn 0.8938 -0.0000 -0.4484
vn 0.3064 -0.0000 0.9519
vn -0.8938 -0.0000 0.4484
vn -0.3064 -0.0000 -0.9519
vn -0.4583 -0.0000 0.8888
vn -0.3147 -0.0000 -0.9492
vn 0.3243 -0.0000 0.9460
vn -0.8083 -0.0000 -0.5888
vn 0.8083 -0.0000 0.5888
vn 0.9870 -0.0097 0.1604
vn -0.3094 0.0051 0.9509
vn -0.9870 0.0097 -0.1604
vn 0.3094 -0.0051 -0.9509
vn -0.0088 -1.0000 0.0018
vn 0.0088 1.0000 -0.0018
vn 0.4581 -0.0097 -0.8888
vn 0.8084 0.0051 0.5887
vn -0.4581 0.0097 0.8888
vn -0.8084 -0.0051 -0.5887
vn -0.0010 -1.0000 0.0089
vn 0.0010 1.0000 -0.0089
vn -0.7092 -0.0097 -0.7049
vn 0.8051 0.0051 -0.5932
vn 0.7092 0.0097 0.7049
vn -0.8051 -0.0051 0.5932
vn 0.0082 -1.0000 0.0037
vn -0.0082 1.0000 -0.0037
vn 0.1456 -0.0000 0.9893
vn -0.7004 -0.0000 -0.7138
vn 1.0000 -0.0000 -0.0014
vn 0.8125 -0.0000 -0.5830
vn -0.0256 -0.0456 -0.9986
vn 0.0009 1.0000 0.0038
vn -0.0009 1.0000 -0.0038
vt 1.000000 0.500000
vt 1.000000 1.000000
vt 0.800000 1.000000
vt 0.800000 0.500000
vt 0.600000 1.000000
vt 0.600000 0.500000
vt 0.400000 1.000000
vt 0.400000 0.500000
vt 0.478254 0.324164
vt 0.250000 0.490000
vt 0.021746 0.324164
vt 0.108932 0.055836
vt 0.391068 0.055836
vt 0.200000 1.000000
vt 0.200000 0.500000
vt 0.000000 1.000000
vt 0.000000 0.500000
vt 0.750000 0.490000
vt 0.978254 0.324164
vt 0.891068 0.055836
vt 0.608932 0.055836
vt 0.521746 0.324164
vt 0.000000 0.000000
vt 0.300000 0.500000
vt 0.271796 0.257082
vt 0.300000 1.000000
vt 0.065339 0.190000
vt 0.490625 0.390625
vt 0.041685 0.718750
vt 0.058343 0.718750
vt 0.713281 0.683594
vt 0.686719 0.683594
vt 0.309375 0.390625
vt 0.556892 0.781250
vt 0.557812 0.781250
vt 0.575000 0.781250
vt 0.600000 0.781250
vt 0.845313 0.781250
vt 1.000000 0.781250
vt 0.025000 0.781250
vt 0.050457 0.233791
vt 0.309375 0.359375
vt 0.686719 0.628906
vt 0.754688 0.718750
vt 0.600000 0.718750
vt 0.575000 0.718750
vt 0.025000 0.718750
vt 0.000000 0.781250
vt 0.000000 0.718750
vt 0.200000 0.940186
vt 0.100000 0.940186
vt 0.100000 0.610047
vt 0.200000 0.610047
vt 0.700000 0.940186
vt 0.600000 0.940186
vt 0.600000 0.610047
vt 0.700000 0.610047
vt 0.500000 0.940186
vt 0.500000 0.610047
vt 0.400000 0.940186
vt 0.400000 0.610047
vt 0.300000 0.610047
vt 0.300000 0.940186
vt -0.000000 0.940186
vt -0.000000 0.610047
vt 1.000000 0.940186
vt 0.900000 0.940186
vt 0.900000 0.610047
vt 1.000000 0.610047
vt 0.050457 0.282418
vt 0.079168 0.277753
vt 0.355580 0.395319
vt 0.250000 0.429624
vt 0.420832 0.277753
vt 0.420832 0.277753
vt 0.079168 0.277753
vt 0.050457 0.282418
vt 0.079168 0.277753
vt 0.079168 0.223458
vt 0.079168 0.222247
vt 0.079168 0.222247
vt 0.079168 0.276537
vt 0.079168 0.263877
vt 0.079168 0.250000
vt 0.079168 0.236123
vt 0.449543 0.282418
vt 0.449543 0.282418
vt 0.420832 0.277753
vt 0.449543 0.282418
vt 0.420832 0.250000
vt 0.420832 0.236123
vt 0.420832 0.236123
vt 0.420832 0.222247
vt 0.420832 0.222247
vt 0.420832 0.222247
vt 0.420832 0.277753
vt 0.420832 0.263877
vt 0.050457 0.282418
vt 0.050457 0.217582
vt 0.050457 0.217582
vt 0.050457 0.217582
vt 0.079168 0.277753
vt 0.079168 0.222247
vt 0.050457 0.217582
vt 0.420832 0.222247
vt 0.449543 0.217582
vt 0.449543 0.217582
vt 0.449543 0.217582
vt 0.449543 0.282418
vt 0.449543 0.217582
vt 0.050457 0.266209
vt 0.050457 0.250000
vt 0.420832 0.305507
vt 0.420832 0.194493
vt 0.449543 0.250000
vt 0.449543 0.233791
vt 0.449543 0.266209
vt 0.449543 0.266209
vt 0.449543 0.250358
vt 0.449543 0.217582
vt 0.449543 0.217582
vt 0.420832 0.223459
vt 0.420832 0.250000
vt 0.420832 0.276538
vt 0.144420 0.104681
vt 0.250000 0.070376
vt 0.355580 0.104681
vt 0.079168 0.194493
vt 0.079168 0.305507
vt 0.144420 0.395319
vt 0.250000 0.429624
vt 0.355580 0.395319
vt 0.800000 0.610047
vt 0.250000 0.070376
vt 0.355580 0.104681
vt 0.300000 0.940186
vt 0.800000 0.940186
vt 0.375000 0.000000
vt 0.625000 0.000000
vt 0.625000 0.250000
vt 0.375000 0.250000
vt 0.625000 0.500000
vt 0.375000 0.500000
vt 0.625000 0.750000
vt 0.375000 0.750000
vt 0.625000 1.000000
vt 0.375000 1.000000
vt 0.125000 0.500000
vt 0.125000 0.750000
vt 0.875000 0.500000
vt 0.875000 0.750000
vt 0.218750 0.500000
vt 0.218750 0.750000
vt 0.187500 0.500000
vt 0.375000 0.906250
vt 0.625000 0.906250
vt 0.781250 0.500000
vt 0.781250 0.750000
vt 0.625000 0.312500
vt 0.375000 0.312500
vt 0.812500 0.500000
vt 0.625000 0.343750
vt 0.375000 0.343750
vt 0.618750 0.718750
vt 0.605211 0.718750
s 0
f 1/1/1 2/2/1 4/3/1 3/4/1
f 3/4/2 4/3/2 6/5/2 5/6/2
f 5/6/3 6/5/3 8/7/3 7/8/3
f 4/9/4 2/10/4 10/11/4 8/12/4 6/13/4
f 7/8/5 8/7/5 10/14/5 9/15/5
f 9/15/6 10/14/6 2/16/6 1/17/6
f 1/18/7 3/19/7 5/20/7 7/21/7 9/22/7
f 11/1/8 12/2/8 14/3/8 13/4/8
f 13/4/9 14/3/9 16/5/9 15/6/9
f 15/6/10 16/5/10 18/7/10 17/8/10
f 14/9/5 12/10/5 20/11/5 18/12/5 16/13/5
f 17/8/11 18/7/11 20/14/11 19/15/11
f 19/15/12 20/14/12 12/16/12 11/17/12
f 11/18/13 13/19/13 15/20/13 17/21/13 19/22/13
f 31/23/14 29/23/14 23/23/14 24/14/14
f 23/23/15 29/23/15 40/23/15 25/24/15
f 31/23/16 27/25/16 28/23/16 30/23/16 40/23/16 29/23/16
f 26/26/5 24/14/5 23/15/5 25/24/5 21/8/5 22/7/5
f 26/27/17 27/25/17 31/23/17 24/14/17
f 26/27/18 22/7/18 28/23/18 27/25/18
f 22/7/19 21/8/19 30/23/19 28/23/19
f 25/24/20 40/23/20 30/23/20 21/8/20
f 45/28/21 41/23/21 47/29/21 44/30/21
f 41/23/22 45/28/22 57/31/22 55/32/22 48/33/22 46/34/22 42/35/22 37/36/22 36/37/22 54/23/22 56/38/22 39/39/22 38/40/22
f 136/41/23 186/41/23 184/41/23 126/41/23
f 48/33/24 49/42/24 43/23/24 46/23/24
f 43/23/25 49/42/25 52/43/25 53/44/25 33/45/25 34/46/25
f 35/47/26 38/40/26 39/48/26 32/49/26
f 37/36/27 34/46/27 33/45/27 36/37/27
f 48/33/28 55/23/28 52/23/28 49/42/28
f 50/23/29 51/23/29 53/44/29 52/23/29
f 36/37/30 33/45/30 53/23/30 54/23/30
f 32/49/31 39/48/31 56/23/31 51/23/31
f 44/30/32 50/23/32 57/23/32 45/28/32
f 50/23/5 52/23/5 55/23/5 57/23/5
f 53/23/5 54/23/5 56/23/5 51/23/5
f 75/50/33 77/51/33 219/52/33 217/53/33
f 65/54/34 67/55/34 213/56/34 212/57/34
f 67/55/35 69/58/35 214/59/35 213/56/35
f 69/58/36 71/60/36 215/61/36 214/59/36
f 75/50/4 217/53/4 216/62/4 73/63/4
f 77/51/37 59/64/37 218/65/37 219/52/37
f 59/66/38 61/67/38 210/68/38 218/69/38
f 93/70/39 153/70/39 154/71/39 92/71/39
f 60/72/13 58/73/13 198/73/13 199/72/13
f 170/74/4 168/74/4 152/75/4 88/75/4 105/74/4 97/74/4
f 100/76/40 99/77/40 111/77/40 108/78/40
f 182/79/7 179/80/7 110/80/7 98/81/7 100/76/7 108/78/7 174/71/7 176/82/7 177/83/7 155/84/7 181/85/7
f 105/74/41 104/86/41 107/87/41 97/74/41
f 104/86/42 105/74/42 114/88/42 113/89/42
f 143/90/4 140/91/4 144/92/4 131/91/4 123/93/4 90/94/4 103/95/4 105/74/4 88/75/4 122/96/4 133/97/4
f 96/98/4 172/70/4 153/70/4 93/70/4 99/77/4
f 86/80/39 148/80/39 147/99/39 87/99/39
f 87/99/4 147/99/4 173/100/4 157/101/4 101/100/4
f 99/77/43 100/76/43 95/102/43 96/98/43
f 180/81/7 183/81/7 148/80/7 86/80/7 98/81/7 158/103/7
f 101/100/44 98/81/44 110/80/44 109/104/44
f 98/81/43 101/100/43 157/101/43 158/103/43
f 111/77/45 96/98/45 95/102/45 108/78/45
f 175/23/7 174/71/7 108/78/7 95/23/7
f 146/94/4 166/105/4 167/95/4 94/105/4 103/95/4 90/94/4
f 102/106/41 103/95/41 94/105/41 106/107/41
f 91/108/46 145/108/46 146/94/46 90/94/46
f 114/88/47 97/74/47 107/87/47 113/89/47
f 152/75/46 151/109/46 89/109/46 88/75/46
f 103/95/48 102/106/48 115/106/48 112/95/48
f 159/23/7 161/109/7 113/89/7 107/23/7
f 98/81/5 100/23/5 105/23/5 103/95/5
f 90/94/49 86/80/49 98/81/49 103/95/49
f 192/70/50 191/23/50 193/23/50 190/23/50 197/23/50 196/109/50
f 149/23/7 151/23/7 196/23/7 197/23/7
f 167/23/4 164/94/4 112/95/4 94/105/4
f 91/108/48 90/94/48 123/93/48 80/94/48 81/108/48 116/110/48
f 86/80/44 87/99/44 121/100/44 85/99/44 84/80/44 118/81/44
f 195/99/51 194/108/51 197/23/51 190/23/51 193/23/51 191/23/51
f 93/70/40 92/71/40 119/71/40 82/71/40 83/70/40 120/70/40
f 172/23/4 96/98/4 111/77/4 99/77/4 93/70/4 120/70/4 128/111/4 138/111/4 136/41/4 126/41/4 121/100/4 87/99/4 101/100/4 109/104/4 157/101/4 173/23/4 156/112/4
f 127/83/7 119/71/7 92/71/7 100/76/7 98/81/7 86/80/7 118/81/7 125/85/7
f 136/41/13 138/111/13 187/111/13 186/41/13
f 228/113/4 220/114/4 202/114/4 201/94/4 80/94/4 123/93/4 131/91/4 144/92/4 143/90/4 133/97/4 122/96/4 78/75/4 200/113/4
f 186/41/4 187/111/4 185/111/4 184/41/4
f 124/115/7 130/116/7 129/116/7 116/110/7 81/108/7 79/109/7 117/86/7 132/117/7 134/118/7
f 143/90/4 144/92/4 140/91/4
f 188/116/23 139/116/23 130/116/23 231/116/23 233/116/23 237/116/23 239/116/23 235/116/23
f 133/23/49 127/23/49 137/23/49 141/23/49
f 137/23/13 135/23/13 140/23/13 141/23/13
f 125/23/5 127/23/5 133/23/5 131/23/5
f 140/23/23 135/23/23 125/23/23 131/23/23
f 92/71/7 154/71/7 178/78/7 175/102/7 95/102/7 100/76/7
f 161/109/7 160/119/7 149/115/7 162/120/7 115/106/7 102/106/7 106/107/7 163/121/7 145/108/7 91/108/7 116/110/7 129/116/7 130/116/7 139/116/7 142/118/7 134/118/7 132/117/7 117/86/7 89/109/7 151/109/7 159/86/7 107/87/7 104/86/7 113/89/7
f 90/94/13 88/23/13 92/23/13 86/80/13
f 92/23/23 88/23/23 105/23/23 100/23/23
f 112/95/52 115/106/52 106/23/52 94/105/52
f 162/120/7 163/23/7 106/23/7 115/106/7
f 112/95/4 164/94/4 165/122/4 150/123/4 169/124/4 171/75/4 114/88/4 105/74/4 103/95/4
f 169/23/4 170/23/4 97/74/4 114/88/4
f 83/70/4 85/99/4 121/100/4 126/41/4 128/111/4 120/70/4
f 110/80/53 158/23/53 157/101/53 109/104/53
f 179/80/7 180/23/7 158/23/7 110/80/7
f 138/111/49 128/111/49 185/111/49 187/111/49
f 147/99/54 148/23/54 146/94/54 145/108/54 194/108/54 195/99/54
f 152/23/55 154/71/55 153/70/55 192/70/55 196/109/55 151/109/55
f 145/23/7 149/23/7 197/23/7 194/23/7
f 153/23/4 156/23/4 191/23/4 192/23/4
f 156/23/4 147/23/4 195/23/4 191/23/4
f 70/125/13 68/126/13 204/126/13 205/125/13
f 66/127/13 64/114/13 202/114/13 203/127/13
f 82/71/7 119/71/7 127/83/7 125/85/7 118/81/7 84/80/7 206/128/7 224/128/7 223/129/7 208/129/7 207/71/7
f 76/130/13 74/129/13 208/129/13 209/130/13
f 62/113/13 60/72/13 199/72/13 200/113/13
f 72/128/13 70/125/13 205/125/13 206/128/13
f 58/73/13 76/130/13 209/130/13 198/73/13
f 198/73/36 229/131/36 222/132/36 199/72/36
f 68/126/13 66/127/13 203/127/13 204/126/13
f 84/80/13 72/128/13 206/128/13
f 64/114/13 80/94/13 201/94/13 202/114/13
f 74/129/13 82/71/13 207/71/13 208/129/13
f 78/75/13 62/113/13 200/113/13
f 219/52/5 218/69/5 210/68/5 211/133/5 212/57/5 213/56/5 214/59/5 215/61/5 216/62/5 217/53/5
f 223/129/13 224/128/13 225/125/13 226/134/13 227/135/13 220/114/13 228/113/13 222/132/13 229/131/13 221/130/13
f 71/60/56 73/136/56 216/62/56 215/61/56
f 61/67/57 63/137/57 211/133/57 210/68/57
f 226/134/38 225/125/38 205/125/38 204/126/38
f 225/125/57 224/128/57 206/128/57 205/125/57
f 220/114/33 227/135/33 203/127/33 202/114/33
f 223/129/34 221/130/34 209/130/34 208/129/34
f 222/132/56 228/113/56 200/113/56 199/72/56
f 221/130/35 229/131/35 198/73/35 209/130/35
f 203/127/37 227/135/37 226/134/37 204/126/37
f 233/116/5 232/118/5 236/118/5 237/116/5
f 65/54/7 212/57/7 211/133/7 63/137/7
f 233/116/4 231/116/4 230/118/4 232/118/4
f 236/118/7 238/118/7 239/116/7 237/116/7
f 234/118/49 238/118/49 236/118/49 232/118/49 230/118/49 134/118/49 142/118/49 189/118/49
f 234/118/13 235/116/13 239/116/13 238/118/13
f 130/116/5 124/115/5 134/118/5 230/118/5 231/116/5
f 189/118/13 142/118/13 139/116/13 188/116/13
f 189/118/7 188/116/7 235/116/7 234/118/7
f 240/138/58 241/139/58 243/140/58 242/141/58
f 242/141/59 243/140/59 247/142/59 246/143/59
f 246/143/60 247/142/60 245/144/60 244/145/60
f 244/145/61 245/144/61 241/146/61 240/147/61
f 242/148/5 246/143/5 244/145/5 240/149/5
f 247/142/13 243/150/13 241/151/13 245/144/13
f 248/138/58 249/139/58 251/140/58 250/141/58
f 260/152/5 254/143/5 252/145/5 259/153/5
f 254/143/62 255/142/62 253/144/62 252/145/62
f 256/154/5 260/152/5 259/153/5 248/149/5 250/148/5
f 259/155/63 261/156/63 249/146/63 248/147/63
f 255/142/13 258/157/13 261/158/13 253/144/13
f 250/141/59 251/140/59 257/159/59 256/160/59
f 258/157/13 257/161/13 251/150/13 249/151/13 261/158/13
f 256/160/64 257/159/64 258/162/64 260/163/64
f 253/144/65 261/156/65 259/155/65 252/145/65
f 260/163/66 258/162/66 255/142/66 254/143/66
f 262/138/67 263/139/67 265/140/67 264/141/67
f 264/141/68 265/140/68 269/142/68 268/143/68
f 268/143/69 269/142/69 267/144/69 266/145/69
f 266/145/70 267/144/70 263/146/70 262/147/70
f 264/148/71 268/143/71 266/145/71 262/149/71
f 269/142/72 265/150/72 263/151/72 267/144/72
f 270/138/73 271/139/73 273/140/73 272/141/73
f 272/141/74 273/140/74 277/142/74 276/143/74
f 276/143/75 277/142/75 275/144/75 274/145/75
f 274/145/76 275/144/76 271/146/76 270/147/76
f 272/148/77 276/143/77 274/145/77 270/149/77
f 277/142/78 273/150/78 271/151/78 275/144/78
f 278/138/79 279/139/79 281/140/79 280/141/79
f 280/141/80 281/140/80 285/142/80 284/143/80
f 284/143/81 285/142/81 283/144/81 282/145/81
f 282/145/82 283/144/82 279/146/82 278/147/82
f 280/148/83 284/143/83 282/145/83 278/149/83
f 285/142/84 281/150/84 279/151/84 283/144/84
f 286/138/85 287/139/85 289/140/85 288/141/85
f 298/152/5 292/143/5 290/145/5 297/153/5
f 292/143/86 293/142/86 291/144/86 290/145/86
f 294/154/5 298/152/5 297/153/5 286/149/5 288/148/5
f 297/155/87 299/156/87 287/146/87 286/147/87
f 293/142/13 296/157/13 299/158/13 291/144/13
f 296/157/13 295/161/13 289/150/13 287/151/13 299/158/13
f 291/144/88 299/156/88 297/155/88 290/145/88
f 88/75/42 89/109/42 117/86/42 79/109/42 78/75/42 122/96/42
f 32/49/89 51/164/89 50/165/89 44/30/89 47/29/89 35/47/89
f 126/41/5 184/41/5 185/111/5 128/111/5
f 79/23/90 81/23/90 201/23/90 202/23/90 203/23/90 204/23/90 205/125/90 206/128/90 73/136/90 71/23/90 69/23/90 67/23/90 65/23/90 63/23/90 200/23/90 78/23/90
f 63/137/91 61/23/91 59/23/91 77/23/91 75/23/91 73/23/91 206/23/91 84/23/91 85/23/91 83/23/91 207/23/91 208/23/91 209/23/91 198/23/91 199/72/91 200/113/91
