# Blender 4.0.2
# www.blender.org
mtllib Elevator.mtl
o Elevator
v -0.290625 -0.012500 0.290625
v -0.375000 0.062500 0.375000
v -0.290625 -0.012500 -0.290625
v -0.375000 0.062500 -0.375000
v 0.290625 -0.012500 0.290625
v 0.375000 0.062500 0.375000
v 0.290625 -0.012500 -0.290625
v 0.375000 0.062500 -0.375000
v -0.375000 0.027500 0.375000
v -0.375000 0.027500 -0.375000
v 0.375000 0.027500 -0.375000
v 0.375000 0.027500 0.375000
v -0.346875 0.025000 -0.346875
v 0.346875 0.025000 -0.346875
v 0.346875 0.025000 0.346875
v -0.346875 0.025000 0.346875
v -0.346875 -0.062500 -0.346875
v -0.346875 -0.062500 0.346875
v 0.346875 -0.062500 -0.346875
v 0.346875 -0.062500 0.346875
v -0.309375 -0.062500 -0.309375
v -0.309375 -0.062500 0.309375
v 0.309375 -0.062500 -0.309375
v 0.309375 -0.062500 0.309375
vn -1.0000 -0.0000 -0.0000
vn -0.0000 -0.0000 -1.0000
vn 1.0000 -0.0000 -0.0000
vn -0.0000 -0.0000 1.0000
vn -0.0000 -1.0000 -0.0000
vn -0.0000 1.0000 -0.0000
vn -0.0000 -0.9961 0.0885
vn 0.0885 -0.9961 -0.0000
vn -0.0000 -0.9961 -0.0885
vn -0.0885 -0.9961 -0.0000
vn 0.9363 -0.3511 -0.0000
vn -0.0000 -0.3511 0.9363
vn -0.9363 -0.3511 -0.0000
vn -0.0000 -0.3511 -0.9363
vt 0.796875 0.675781
vt 0.886719 0.675781
vt 0.886719 1.000000
vt 0.796875 1.000000
vt 0.566406 0.675781
vt 0.660156 0.675781
vt 0.660156 1.000000
vt 0.566406 1.000000
vt 0.683594 0.675781
vt 0.773438 0.675781
vt 0.773438 1.000000
vt 0.683594 1.000000
vt 0.910156 0.675781
vt 1.000000 0.675781
vt 1.000000 1.000000
vt 0.910156 1.000000
vt 0.710938 0.375000
vt 0.960938 0.375000
vt 0.960938 0.625000
vt 0.710938 0.625000
vt 0.999735 0.324869
vt 0.675131 0.324869
vt 0.675131 0.000265
vt 0.999735 0.000265
vt 0.894531 0.687500
vt 0.894531 0.988281
vt 0.667969 0.687500
vt 0.667969 0.988281
vt 0.554688 0.687500
vt 0.554688 0.988281
vt 0.781250 0.687500
vt 0.781250 0.988281
vt 0.242188 0.683594
vt 0.011719 0.683594
vt 0.011719 0.382812
vt 0.242188 0.382812
vt 0.238281 0.992188
vt 0.011719 0.992188
vt 0.011719 0.691406
vt 0.238281 0.691406
vt 0.011719 0.230469
vt 0.011719 0.003906
vt 0.312500 0.003906
vt 0.312500 0.230469
vt 0.343750 0.234375
vt 0.343750 0.003906
vt 0.644531 0.003906
vt 0.644531 0.234375
vt 0.257812 0.398438
vt 0.257812 0.667969
vt 0.257812 0.707031
vt 0.257812 0.972656
vt 0.296875 0.246094
vt 0.031250 0.246094
vt 0.628906 0.250000
vt 0.359375 0.250000
vt 0.386719 0.406250
vt 0.386719 0.660156
vt 0.386719 0.714844
vt 0.386719 0.964844
vt 0.289062 0.378906
vt 0.039062 0.378906
vt 0.621094 0.378906
vt 0.367188 0.378906
s 0
f 9/1/1 2/2/1 4/3/1 10/4/1
f 10/5/2 4/6/2 8/7/2 11/8/2
f 11/9/3 8/10/3 6/11/3 12/12/3
f 12/13/4 6/14/4 2/15/4 9/16/4
f 3/17/5 7/18/5 5/19/5 1/20/5
f 8/21/6 4/22/6 2/23/6 6/24/6
f 15/25/7 12/13/7 9/16/7 16/26/7
f 14/27/8 11/9/8 12/12/8 15/28/8
f 13/29/9 10/5/9 11/8/9 14/30/9
f 16/31/10 9/1/10 10/4/10 13/32/10
f 18/33/1 16/34/1 13/35/1 17/36/1
f 17/37/2 13/38/2 14/39/2 19/40/2
f 19/41/3 14/42/3 15/43/3 20/44/3
f 20/45/4 15/46/4 16/47/4 18/48/4
f 21/49/5 22/50/5 18/33/5 17/36/5
f 23/51/5 21/52/5 17/37/5 19/40/5
f 24/53/5 23/54/5 19/41/5 20/44/5
f 22/55/5 24/56/5 20/45/5 18/48/5
f 3/57/11 1/58/11 22/50/11 21/49/11
f 7/59/12 3/60/12 21/52/12 23/51/12
f 5/61/13 7/62/13 23/54/13 24/53/13
f 1/63/14 5/64/14 24/56/14 22/55/14
