# Blender 4.0.2
# www.blender.org
mtllib Jump_Pad.mtl
o Jump_Pad
v -0.500000 -0.500000 0.500000
v -0.500000 -0.475000 0.500000
v -0.500000 -0.500000 -0.500000
v -0.500000 -0.475000 -0.500000
v 0.500000 -0.500000 0.500000
v 0.500000 -0.475000 0.500000
v 0.500000 -0.500000 -0.500000
v 0.500000 -0.475000 -0.500000
v 0.000000 -0.475000 0.000000
v -0.288247 -0.450000 -0.000000
v 0.288247 -0.450000 0.000000
v -0.000000 -0.450000 0.288247
v -0.203821 -0.450000 0.203821
v 0.203821 -0.450000 0.203821
v 0.000000 -0.475000 -0.301777
v -0.203821 -0.450000 -0.203821
v 0.203821 -0.450000 -0.203821
v -0.213388 -0.475000 -0.213388
v -0.301777 -0.475000 -0.000000
v 0.213388 -0.475000 -0.213388
v 0.301777 -0.475000 0.000000
v -0.213388 -0.475000 0.213388
v 0.213388 -0.475000 0.213388
v -0.000000 -0.475000 0.301777
v 0.000000 -0.450000 -0.288247
v 0.375000 -0.475000 0.375000
v 0.375000 -0.475000 -0.375000
v -0.375000 -0.475000 -0.375000
v -0.375000 -0.475000 0.375000
v -0.387500 -0.485000 -0.223028
v -0.387500 -0.485000 0.223028
v 0.223028 -0.485000 -0.387500
v -0.223028 -0.485000 -0.387500
v 0.387500 -0.485000 0.223028
v 0.387500 -0.485000 -0.223028
v -0.223028 -0.485000 0.387500
v 0.223028 -0.485000 0.387500
v 0.500000 -0.485000 -0.250000
v 0.500000 -0.485000 0.250000
v 0.375000 -0.475000 0.234033
v 0.375000 -0.475000 -0.234033
v 0.250000 -0.485000 0.500000
v -0.250000 -0.485000 0.500000
v -0.234033 -0.475000 0.375000
v 0.234033 -0.475000 0.375000
v -0.500000 -0.485000 0.250000
v -0.500000 -0.485000 -0.250000
v -0.375000 -0.475000 -0.234033
v -0.375000 -0.475000 0.234033
v -0.250000 -0.485000 -0.500000
v 0.250000 -0.485000 -0.500000
v 0.234033 -0.475000 -0.375000
v -0.234033 -0.475000 -0.375000
vn -0.0000 0.7809 -0.6247
vn -0.0000 -0.0000 -1.0000
vn -0.0000 -0.0000 1.0000
vn 0.0797 0.9968 -0.0000
vn 0.6247 0.7809 -0.0000
vn 0.0611 0.9963 0.0611
vn -0.0611 0.9963 0.0611
vn -0.0000 1.0000 -0.0000
vn -1.0000 -0.0000 -0.0000
vn 0.0611 0.9963 -0.0611
vn -0.0611 0.9963 -0.0611
vn 1.0000 -0.0000 -0.0000
vn -0.0000 0.9968 -0.0797
vn 0.0399 0.9984 0.0399
vn -0.8263 0.4472 -0.3423
vn 0.8263 0.4472 -0.3423
vn -0.8263 0.4472 0.3423
vn 0.8263 0.4472 0.3423
vn -0.3423 0.4472 0.8263
vn 0.3423 0.4472 0.8263
vn 0.3423 0.4472 -0.8263
vn -0.3423 0.4472 -0.8263
vn -0.0399 0.9984 0.0399
vn -0.0000 0.9968 0.0797
vn 0.0399 0.9984 -0.0399
vn -0.0399 0.9984 -0.0399
vn -0.6247 0.7809 -0.0000
vn -0.0797 0.9968 -0.0000
vn -0.0000 0.7809 0.6247
vn 0.1380 0.8060 -0.5756
vn 0.1380 0.8060 0.5756
vn 0.5756 0.8060 0.1380
vn -0.5756 0.8060 0.1380
vn -0.1380 0.8060 0.5756
vn -0.1380 0.8060 -0.5756
vn -0.5756 0.8060 -0.1380
vn 0.5756 0.8060 -0.1380
vt 0.582031 0.617188
vt 0.585938 0.929688
vt 0.574219 0.937500
vt 0.570312 0.605469
vt 0.937500 0.414062
vt 0.937500 0.773438
vt 0.945312 0.953125
vt 0.925781 0.953125
vt 0.925781 0.234375
vt 0.945312 0.234375
vt 0.906250 0.953125
vt 0.914062 0.773438
vt 0.914062 0.414062
vt 0.906250 0.234375
vt 0.261719 0.968750
vt 0.250000 0.878906
vt 0.351562 0.878906
vt 0.472656 0.617188
vt 0.476562 0.929688
vt 0.464844 0.937500
vt 0.460938 0.605469
vt 0.269531 0.062500
vt 0.417969 0.125000
vt 0.480469 0.269531
vt 0.269531 0.269531
vt 0.121094 0.125000
vt 0.058594 0.269531
vt 0.554688 0.585938
vt 0.554688 0.957031
vt 0.796875 0.613281
vt 0.878906 0.585938
vt 0.878906 0.953125
vt 0.800781 0.925781
vt 0.972656 0.414062
vt 0.972656 0.773438
vt 0.980469 0.953125
vt 0.964844 0.953125
vt 0.964844 0.234375
vt 0.980469 0.234375
vt 0.417969 0.417969
vt 0.269531 0.480469
vt 0.121094 0.417969
vt 0.953125 0.773438
vt 0.953125 0.414062
vt 0.960938 0.234375
vt 0.960938 0.953125
vt 0.039062 0.562500
vt 0.128906 0.652344
vt 0.027344 0.652344
vt 0.664062 0.957031
vt 0.664062 0.589844
vt 0.222656 0.773438
vt 0.132812 0.863281
vt 0.042969 0.773438
vt 0.554688 0.566406
vt 0.554688 0.406250
vt 0.574219 0.402344
vt 0.574219 0.570312
vt 0.824219 0.402344
vt 0.824219 0.562500
vt 0.804688 0.566406
vt 0.804688 0.398438
vt 0.789062 0.406250
vt 0.789062 0.566406
vt 0.765625 0.570312
vt 0.765625 0.402344
vt 0.625000 0.566406
vt 0.625000 0.406250
vt 0.644531 0.406250
vt 0.644531 0.570312
vt 0.730469 0.566406
vt 0.730469 0.410156
vt 0.750000 0.406250
vt 0.750000 0.570312
vt 0.585938 0.566406
vt 0.585938 0.406250
vt 0.609375 0.406250
vt 0.609375 0.570312
vt 0.714844 0.406250
vt 0.714844 0.566406
vt 0.695312 0.570312
vt 0.695312 0.402344
vt 0.683594 0.406250
vt 0.683594 0.566406
vt 0.660156 0.570312
vt 0.660156 0.402344
vt 0.031250 0.863281
vt 0.441406 0.789062
vt 0.441406 0.968750
vt 0.257812 0.757812
vt 0.347656 0.667969
vt 0.437500 0.757812
vt 0.218750 0.742188
vt 0.218750 0.562500
vt 0.351562 0.777344
vt 0.222656 0.953125
vt 0.439681 0.000336
vt 0.541373 0.000336
vt 0.424789 0.116920
vt 0.270855 0.053158
vt 0.116920 0.116920
vt 0.000336 0.000336
vt 0.102028 0.000336
vt 0.437500 0.578125
vt 0.246094 0.667969
vt 0.789062 0.933594
vt 0.785156 0.601562
vt 0.128906 0.753906
vt 0.347656 0.566406
vt 0.132812 0.964844
vt 0.687500 0.613281
vt 0.691406 0.925781
vt 0.679688 0.937500
vt 0.675781 0.605469
vt 0.769531 0.585938
vt 0.769531 0.953125
vt 0.000336 0.541372
vt 0.116920 0.424789
vt 0.270854 0.488551
vt 0.424789 0.424789
vt 0.541373 0.541372
vt 0.439681 0.541373
vt 0.102028 0.541372
vt 0.053158 0.270854
vt 0.000336 0.439681
vt 0.000336 0.102028
vt 0.541373 0.439681
vt 0.488551 0.270855
vt 0.541373 0.102028
s 0
f 32/1/1 33/2/1 53/3/1 52/4/1
f 50/5/2 51/6/2 8/7/2 7/8/2 3/9/2 4/10/2
f 5/8/3 6/11/3 42/12/3 43/13/3 2/14/3 1/9/3
f 39/15/4 40/16/4 26/17/4
f 34/18/5 35/19/5 41/20/5 40/21/5
f 25/22/6 16/23/6 10/24/6 9/25/6
f 17/26/7 25/22/7 9/25/7 11/27/7
f 34/18/8 39/28/8 38/29/8 35/19/8
f 30/30/8 47/31/8 46/32/8 31/33/8
f 46/34/9 47/35/9 4/36/9 3/37/9 1/38/9 2/39/9
f 9/25/10 10/24/10 13/40/10 12/41/10
f 11/27/11 9/25/11 12/41/11 14/42/11
f 38/43/12 39/44/12 6/10/12 5/45/12 7/46/12 8/7/12
f 50/47/13 28/48/13 53/49/13
f 50/50/8 33/2/8 32/1/8 51/51/8
f 8/52/14 27/53/14 38/54/14
f 10/55/15 16/56/15 18/57/15 19/58/15
f 17/59/16 11/60/16 21/61/16 20/62/16
f 13/63/17 10/64/17 19/65/17 22/66/17
f 11/67/18 14/68/18 23/69/18 21/70/18
f 12/71/19 13/72/19 22/73/19 24/74/19
f 14/75/20 12/76/20 24/77/20 23/78/20
f 25/79/21 17/80/21 20/81/21 15/82/21
f 16/83/22 25/84/22 15/85/22 18/86/22
f 38/54/4 27/53/4 41/87/4
f 42/88/23 6/89/23 26/17/23
f 43/90/14 29/91/14 2/92/14
f 47/93/23 28/48/23 4/94/23
f 26/17/24 45/95/24 42/88/24
f 26/17/25 6/89/25 39/15/25
f 27/53/26 8/52/26 51/96/26
f 4/94/25 28/48/25 50/47/25
f 49/97/8 29/98/8 22/99/8 19/100/8 18/101/8 28/102/8 48/103/8
f 2/92/26 29/91/26 46/104/26
f 29/91/24 43/90/24 44/105/24
f 30/30/27 31/33/27 49/106/27 48/107/27
f 48/108/28 28/48/28 47/93/28
f 29/91/28 49/109/28 46/104/28
f 52/110/13 27/53/13 51/96/13
f 36/111/29 37/112/29 45/113/29 44/114/29
f 34/18/30 40/21/30 39/28/30
f 35/19/31 38/29/31 41/20/31
f 36/111/8 43/115/8 42/116/8 37/112/8
f 36/111/32 44/114/32 43/115/32
f 37/112/33 42/116/33 45/113/33
f 30/30/34 48/107/34 47/31/34
f 31/33/35 46/32/35 49/106/35
f 32/1/36 52/4/36 51/51/36
f 33/2/37 50/50/37 53/3/37
f 27/117/8 20/118/8 21/119/8 23/120/8 26/121/8 40/122/8 41/123/8
f 28/102/8 18/101/8 15/124/8 20/118/8 27/117/8 52/125/8 53/126/8
f 45/127/8 26/121/8 23/120/8 24/128/8 22/99/8 29/98/8 44/129/8
