# Blender 4.0.2
# www.blender.org
mtllib Tower.mtl
o Tower
v 0.500000 0.500000 -0.500000
v 0.000000 -0.500000 -0.250000
v 0.500000 0.450000 -0.500000
v 0.500000 0.500000 0.500000
v 0.176777 -0.500000 -0.176777
v 0.500000 0.450000 0.500000
v -0.500000 0.500000 -0.500000
v 0.250000 -0.500000 0.000000
v -0.500000 0.450000 -0.500000
v -0.500000 0.500000 0.500000
v 0.176777 -0.500000 0.176777
v -0.500000 0.450000 0.500000
v -0.000000 -0.500000 0.250000
v -0.176777 -0.500000 0.176777
v -0.250000 -0.500000 -0.000000
v -0.176777 -0.500000 -0.176777
v 0.000000 0.450000 -0.250000
v 0.250000 0.450000 0.000000
v 0.176777 0.450000 -0.176777
v 0.176777 0.450000 0.176777
v -0.250000 0.450000 -0.000000
v -0.176777 0.450000 -0.176777
v -0.000000 0.450000 0.250000
v -0.176777 0.450000 0.176777
vn -0.0000 1.0000 -0.0000
vn -0.0000 -0.0000 1.0000
vn -1.0000 -0.0000 -0.0000
vn -0.0000 -1.0000 -0.0000
vn 1.0000 -0.0000 -0.0000
vn -0.0000 -0.0000 -1.0000
vn 0.3827 -0.0000 -0.9239
vn 0.9239 -0.0000 -0.3827
vn 0.9239 -0.0000 0.3827
vn 0.3827 -0.0000 0.9239
vn -0.3827 -0.0000 0.9239
vn -0.9239 -0.0000 0.3827
vn -0.9239 -0.0000 -0.3827
vn -0.3827 -0.0000 -0.9239
vt 0.914062 0.957031
vt 0.449219 0.492188
vt 0.914062 0.492188
vt 0.929688 0.496094
vt 0.953125 0.496094
vt 0.953125 0.960938
vt 0.929688 0.960938
vt 0.929688 0.011719
vt 0.953125 0.011719
vt 0.953125 0.472656
vt 0.929688 0.472656
vt 0.453125 0.015625
vt 0.914062 0.015625
vt 0.765625 0.164062
vt 0.683594 0.132812
vt 0.601562 0.164062
vt 0.914062 0.480469
vt 0.453125 0.480469
vt 0.601562 0.328125
vt 0.683594 0.363281
vt 0.765625 0.328125
vt 0.964844 0.496094
vt 0.988281 0.496094
vt 0.988281 0.960938
vt 0.964844 0.960938
vt 0.964844 0.011719
vt 0.988281 0.011719
vt 0.988281 0.476562
vt 0.964844 0.476562
vt 0.445312 0.750000
vt 0.445312 0.839844
vt 0.003906 0.839844
vt 0.003906 0.750000
vt 0.003906 0.660156
vt 0.445312 0.660156
vt 0.003906 0.570312
vt 0.445312 0.570312
vt 0.003906 0.484375
vt 0.445312 0.484375
vt 0.003906 0.394531
vt 0.445312 0.394531
vt 0.445312 0.304688
vt 0.003906 0.304688
vt 0.445312 0.214844
vt 0.003906 0.214844
vt 0.445312 0.128906
vt 0.003906 0.128906
vt 0.566406 0.246094
vt 0.800781 0.246094
vt 0.449219 0.957031
s 0
usemtl Material.002
f 4/1/1 7/2/1 10/3/1
f 6/4/2 4/5/2 10/6/2 12/7/2
f 12/8/3 10/9/3 7/10/3 9/11/3
f 6/12/4 12/13/4 24/14/4 23/15/4 20/16/4
f 9/17/4 3/18/4 19/19/4 17/20/4 22/21/4
f 3/22/5 1/23/5 4/24/5 6/25/5
f 9/26/6 7/27/6 1/28/6 3/29/6
f 5/30/7 2/31/7 17/32/7 19/33/7
f 18/34/8 8/35/8 5/30/8 19/33/8
f 20/36/9 11/37/9 8/35/9 18/34/9
f 23/38/10 13/39/10 11/37/10 20/36/10
f 24/40/11 14/41/11 13/39/11 23/38/11
f 15/42/12 14/41/12 24/40/12 21/43/12
f 16/44/13 15/42/13 21/43/13 22/45/13
f 2/46/14 16/44/14 22/45/14 17/47/14
f 19/19/4 3/18/4 6/12/4 20/16/4 18/48/4
f 24/14/4 12/13/4 9/17/4 22/21/4 21/49/4
f 7/2/1 4/1/1 1/50/1
