# Blender 4.0.2
# www.blender.org
mtllib PAINandglory.mtl
o Plane
v -1.000000 0.000000 1.000000
v 1.000000 0.000000 1.000000
v -1.000000 0.000000 -1.000000
v 1.000000 0.000000 -1.000000
v -0.987500 0.000000 -0.987500
v -0.987500 0.000000 0.987500
v 0.987500 0.000000 0.987500
v 0.987500 0.000000 -0.987500
vn -0.0000 1.0000 -0.0000
vt 0.006250 0.006250
vt 0.006250 0.993750
vt 0.000000 1.000000
vt 0.000000 0.000000
vt 0.993750 0.006250
vt 1.000000 0.000000
vt 0.993750 0.993750
vt 1.000000 1.000000
s 0
f 6/1/1 5/2/1 3/3/1 1/4/1
f 7/5/1 6/1/1 1/4/1 2/6/1
f 8/7/1 7/5/1 2/6/1 4/8/1
f 5/2/1 8/7/1 4/8/1 3/3/1
