# Blender 4.0.2
# www.blender.org
mtllib PAINandglory_THE-SEQUAL.mtl
o Plane
v -1.000000 0.000000 1.000000
v 1.000000 0.000000 1.000000
v -1.000000 0.000000 -1.000000
v 1.000000 0.000000 -1.000000
v -0.987500 0.000000 -0.987500
v -0.987500 0.000000 0.987500
v 0.987500 0.000000 0.987500
v 0.987500 0.000000 -0.987500
v -0.987500 0.603484 -0.987500
v -0.987500 0.603484 0.987500
v 0.987500 0.603484 0.987500
v 0.987500 0.603484 -0.987500
v -1.000000 0.603484 -1.000000
v -1.000000 0.603484 1.000000
v 1.000000 0.603484 1.000000
v 1.000000 0.603484 -1.000000
vn -0.0000 -1.0000 -0.0000
vn -0.0000 1.0000 -0.0000
vn -1.0000 -0.0000 -0.0000
vn 1.0000 -0.0000 -0.0000
vn -0.0000 -0.0000 -1.0000
vn -0.0000 -0.0000 1.0000
vt 0.006250 0.006250
vt 0.000000 0.000000
vt 0.000000 1.000000
vt 0.006250 0.993750
vt 0.993750 0.006250
vt 1.000000 0.000000
vt 0.993750 0.993750
vt 1.000000 1.000000
s 0
f 6/1/1 1/2/1 3/3/1 5/4/1
f 7/5/1 2/6/1 1/2/1 6/1/1
f 8/7/1 4/8/1 2/6/1 7/5/1
f 5/4/1 3/3/1 4/8/1 8/7/1
f 10/1/2 9/4/2 13/3/2 14/2/2
f 11/5/2 10/1/2 14/2/2 15/6/2
f 12/7/2 11/5/2 15/6/2 16/8/2
f 9/4/2 12/7/2 16/8/2 13/3/2
f 8/7/3 7/5/3 11/5/3 12/7/3
f 6/1/4 5/4/4 9/4/4 10/1/4
f 4/8/5 3/3/5 13/3/5 16/8/5
f 1/2/6 2/6/6 15/6/6 14/2/6
f 5/4/6 8/7/6 12/7/6 9/4/6
f 7/5/5 6/1/5 10/1/5 11/5/5
f 2/6/4 4/8/4 16/8/4 15/6/4
f 3/3/3 1/2/3 14/2/3 13/3/3
