# Blender v3.0.0 OBJ File: ''
# www.blender.org
mtllib Cube_GR.mtl
o Cube_Cube.098
v -0.414375 -0.500000 0.414375
v -0.487500 -0.425000 0.487500
v -0.466082 -0.478033 0.466082
v -0.414375 -0.500000 -0.414375
v -0.487500 -0.425000 -0.487500
v -0.466082 -0.478033 -0.466082
v 0.414375 -0.500000 0.414375
v 0.487500 -0.425000 0.487500
v 0.466082 -0.478033 0.466082
v 0.414375 -0.500000 -0.414375
v 0.487500 -0.425000 -0.487500
v 0.466082 -0.478033 -0.466082
v 0.487500 0.000000 0.487500
v -0.487500 0.000000 0.487500
v -0.487500 0.000000 -0.487500
v 0.487500 0.000000 -0.487500
v -0.414375 0.500000 0.414375
v -0.487500 0.425000 0.487500
v -0.466082 0.478033 0.466082
v -0.414375 0.500000 -0.414375
v -0.487500 0.425000 -0.487500
v -0.466082 0.478033 -0.466082
v 0.414375 0.500000 0.414375
v 0.487500 0.425000 0.487500
v 0.466082 0.478033 0.466082
v 0.414375 0.500000 -0.414375
v 0.487500 0.425000 -0.487500
v 0.466082 0.478033 -0.466082
vt 0.500000 0.500000
vt 0.500000 0.250000
vt 0.500000 1.000000
vt 0.500000 0.750000
vt 0.643750 0.518750
vt 0.643750 0.731250
vt 0.856250 0.731250
vt 0.856250 0.518750
vt 0.606250 0.500000
vt 0.606250 0.250000
vt 0.606250 1.000000
vt 0.606250 0.750000
vt 0.875000 0.744508
vt 0.875000 0.505492
vt 0.625000 0.005492
vt 0.606250 0.000000
vt 0.625000 0.244508
vt 0.869508 0.500000
vt 0.630492 0.500000
vt 0.625000 0.255492
vt 0.625000 0.494508
vt 0.625000 0.505492
vt 0.625000 0.744508
vt 0.630492 0.750000
vt 0.869508 0.750000
vt 0.625000 0.755492
vt 0.625000 0.994508
vt 0.500000 0.000000
vt 0.643750 0.518750
vt 0.856250 0.518750
vt 0.856250 0.731250
vt 0.643750 0.731250
vt 0.606250 0.250000
vt 0.606250 0.500000
vt 0.606250 0.750000
vt 0.606250 1.000000
vt 0.875000 0.505492
vt 0.875000 0.744508
vt 0.625000 0.005492
vt 0.625000 0.244508
vt 0.606250 0.000000
vt 0.630492 0.500000
vt 0.869508 0.500000
vt 0.625000 0.255492
vt 0.625000 0.494508
vt 0.625000 0.744508
vt 0.625000 0.505492
vt 0.869508 0.750000
vt 0.630492 0.750000
vt 0.625000 0.755492
vt 0.625000 0.994508
vn 0.0000 1.0000 0.0000
vn 0.0000 -1.0000 0.0000
vn 0.0000 0.0000 -1.0000
vn 0.0000 0.0000 1.0000
vn 1.0000 0.0000 0.0000
vn -0.3910 -0.9204 0.0000
vn -0.9272 -0.3745 0.0000
vn 0.0000 -0.9204 -0.3910
vn 0.0000 -0.3745 -0.9272
vn 0.3910 -0.9204 0.0000
vn 0.9272 -0.3745 0.0000
vn 0.0000 -0.9204 0.3910
vn 0.0000 -0.3745 0.9272
vn -1.0000 0.0000 0.0000
vn -0.3910 0.9204 0.0000
vn -0.9272 0.3745 0.0000
vn 0.0000 0.9204 -0.3910
vn 0.0000 0.3745 -0.9272
vn 0.3910 0.9204 0.0000
vn 0.9272 0.3745 0.0000
vn 0.0000 0.9204 0.3910
vn 0.0000 0.3745 0.9272
usemtl None
s off
f 16/1/1 15/2/1 14/3/1 13/4/1
f 10/5/2 7/6/2 1/7/2 4/8/2
f 15/2/3 16/1/3 11/9/3 5/10/3
f 13/4/4 14/3/4 2/11/4 8/12/4
f 16/1/5 13/4/5 8/12/5 11/9/5
f 1/7/6 3/13/6 6/14/6 4/8/6
f 3/15/7 2/16/7 5/10/7 6/17/7
f 4/8/8 6/18/8 12/19/8 10/5/8
f 6/20/9 5/10/9 11/9/9 12/21/9
f 10/5/10 12/22/10 9/23/10 7/6/10
f 12/22/11 11/9/11 8/12/11 9/23/11
f 7/6/12 9/24/12 3/25/12 1/7/12
f 9/26/13 8/12/13 2/11/13 3/27/13
f 14/28/14 15/2/14 5/10/14 2/16/14
f 26/29/1 20/30/1 17/31/1 23/32/1
f 15/2/3 21/33/3 27/34/3 16/1/3
f 13/4/4 24/35/4 18/36/4 14/3/4
f 16/1/5 27/34/5 24/35/5 13/4/5
f 17/31/15 20/30/15 22/37/15 19/38/15
f 19/39/16 22/40/16 21/33/16 18/41/16
f 20/30/17 26/29/17 28/42/17 22/43/17
f 22/44/18 28/45/18 27/34/18 21/33/18
f 26/29/19 23/32/19 25/46/19 28/47/19
f 28/47/20 25/46/20 24/35/20 27/34/20
f 23/32/21 17/31/21 19/48/21 25/49/21
f 25/50/22 19/51/22 18/36/22 24/35/22
f 14/28/14 18/41/14 21/33/14 15/2/14
