# Blender v3.0.0 OBJ File: ''
# www.blender.org
mtllib Dummy_Stand_GR.mtl
o Cylinder
v 0.000000 -0.400000 -0.012500
v 0.000000 0.400000 -0.012500
v 0.002439 -0.400000 -0.012260
v 0.002439 0.400000 -0.012260
v 0.004784 -0.400000 -0.011548
v 0.004784 0.400000 -0.011548
v 0.006945 -0.400000 -0.010393
v 0.006945 0.400000 -0.010393
v 0.008839 -0.400000 -0.008839
v 0.008839 0.400000 -0.008839
v 0.010393 -0.400000 -0.006945
v 0.010393 0.400000 -0.006945
v 0.011548 -0.400000 -0.004784
v 0.011548 0.400000 -0.004784
v 0.012260 -0.400000 -0.002439
v 0.012260 0.400000 -0.002439
v 0.012500 -0.400000 0.000000
v 0.012500 0.400000 0.000000
v 0.012260 -0.400000 0.002439
v 0.012260 0.400000 0.002439
v 0.011548 -0.400000 0.004784
v 0.011548 0.400000 0.004784
v 0.010393 -0.400000 0.006945
v 0.010393 0.400000 0.006945
v 0.008839 -0.400000 0.008839
v 0.008839 0.400000 0.008839
v 0.006945 -0.400000 0.010393
v 0.006945 0.400000 0.010393
v 0.004784 -0.400000 0.011548
v 0.004784 0.400000 0.011548
v 0.002439 -0.400000 0.012260
v 0.002439 0.400000 0.012260
v -0.000000 -0.400000 0.012500
v -0.000000 0.400000 0.012500
v -0.002439 -0.400000 0.012260
v -0.002439 0.400000 0.012260
v -0.004784 -0.400000 0.011548
v -0.004784 0.400000 0.011548
v -0.006945 -0.400000 0.010393
v -0.006945 0.400000 0.010393
v -0.008839 -0.400000 0.008839
v -0.008839 0.400000 0.008839
v -0.010393 -0.400000 0.006945
v -0.010393 0.400000 0.006945
v -0.011548 -0.400000 0.004784
v -0.011548 0.400000 0.004784
v -0.012260 -0.400000 0.002439
v -0.012260 0.400000 0.002439
v -0.012500 -0.400000 -0.000000
v -0.012500 0.400000 -0.000000
v -0.012260 -0.400000 -0.002439
v -0.012260 0.400000 -0.002439
v -0.011548 -0.400000 -0.004784
v -0.011548 0.400000 -0.004784
v -0.010393 -0.400000 -0.006945
v -0.010393 0.400000 -0.006945
v -0.008839 -0.400000 -0.008839
v -0.008839 0.400000 -0.008839
v -0.006945 -0.400000 -0.010393
v -0.006945 0.400000 -0.010393
v -0.004784 -0.400000 -0.011548
v -0.004784 0.400000 -0.011548
v -0.002439 -0.400000 -0.012260
v -0.002439 0.400000 -0.012260
v 0.000000 -0.405000 -0.062500
v 0.012193 -0.405000 -0.061299
v 0.023918 -0.405000 -0.057742
v 0.034723 -0.405000 -0.051967
v 0.044194 -0.405000 -0.044194
v 0.051967 -0.405000 -0.034723
v 0.057742 -0.405000 -0.023918
v 0.061299 -0.405000 -0.012193
v 0.062500 -0.405000 0.000000
v 0.061299 -0.405000 0.012193
v 0.057742 -0.405000 0.023918
v 0.051967 -0.405000 0.034723
v 0.044194 -0.405000 0.044194
v 0.034723 -0.405000 0.051967
v 0.023918 -0.405000 0.057742
v 0.012193 -0.405000 0.061299
v 0.000000 -0.405000 0.062500
v -0.012193 -0.405000 0.061299
v -0.023918 -0.405000 0.057742
v -0.034723 -0.405000 0.051967
v -0.044194 -0.405000 0.044194
v -0.051967 -0.405000 0.034723
v -0.057742 -0.405000 0.023918
v -0.061299 -0.405000 0.012193
v -0.062500 -0.405000 -0.000000
v -0.061299 -0.405000 -0.012193
v -0.057742 -0.405000 -0.023918
v -0.051967 -0.405000 -0.034723
v -0.044194 -0.405000 -0.044194
v -0.034723 -0.405000 -0.051967
v -0.023918 -0.405000 -0.057742
v -0.012193 -0.405000 -0.061299
v 0.000000 -0.417500 -0.062500
v 0.012193 -0.417500 -0.061299
v 0.023918 -0.417500 -0.057742
v 0.034723 -0.417500 -0.051967
v 0.044194 -0.417500 -0.044194
v 0.051967 -0.417500 -0.034723
v 0.057742 -0.417500 -0.023918
v 0.061299 -0.417500 -0.012193
v 0.062500 -0.417500 0.000000
v 0.061299 -0.417500 0.012193
v 0.057742 -0.417500 0.023918
v 0.051967 -0.417500 0.034723
v 0.044194 -0.417500 0.044194
v 0.034723 -0.417500 0.051967
v 0.023918 -0.417500 0.057742
v 0.012193 -0.417500 0.061299
v 0.000000 -0.417500 0.062500
v -0.012193 -0.417500 0.061299
v -0.023918 -0.417500 0.057742
v -0.034723 -0.417500 0.051967
v -0.044194 -0.417500 0.044194
v -0.051967 -0.417500 0.034723
v -0.057742 -0.417500 0.023918
v -0.061299 -0.417500 0.012193
v -0.062500 -0.417500 -0.000000
v -0.061299 -0.417500 -0.012193
v -0.057742 -0.417500 -0.023918
v -0.051967 -0.417500 -0.034723
v -0.044194 -0.417500 -0.044194
v -0.034723 -0.417500 -0.051967
v -0.023918 -0.417500 -0.057742
v -0.012193 -0.417500 -0.061299
vt 1.000000 0.500000
vt 1.000000 1.000000
vt 0.968750 1.000000
vt 0.968750 0.500000
vt 0.937500 1.000000
vt 0.937500 0.500000
vt 0.906250 1.000000
vt 0.906250 0.500000
vt 0.875000 1.000000
vt 0.875000 0.500000
vt 0.843750 1.000000
vt 0.843750 0.500000
vt 0.812500 1.000000
vt 0.812500 0.500000
vt 0.781250 1.000000
vt 0.781250 0.500000
vt 0.750000 1.000000
vt 0.750000 0.500000
vt 0.718750 1.000000
vt 0.718750 0.500000
vt 0.687500 1.000000
vt 0.687500 0.500000
vt 0.656250 1.000000
vt 0.656250 0.500000
vt 0.625000 1.000000
vt 0.625000 0.500000
vt 0.593750 1.000000
vt 0.593750 0.500000
vt 0.562500 1.000000
vt 0.562500 0.500000
vt 0.531250 1.000000
vt 0.531250 0.500000
vt 0.500000 1.000000
vt 0.500000 0.500000
vt 0.468750 1.000000
vt 0.468750 0.500000
vt 0.437500 1.000000
vt 0.437500 0.500000
vt 0.406250 1.000000
vt 0.406250 0.500000
vt 0.375000 1.000000
vt 0.375000 0.500000
vt 0.343750 1.000000
vt 0.343750 0.500000
vt 0.312500 1.000000
vt 0.312500 0.500000
vt 0.281250 1.000000
vt 0.281250 0.500000
vt 0.250000 1.000000
vt 0.250000 0.500000
vt 0.218750 1.000000
vt 0.218750 0.500000
vt 0.187500 1.000000
vt 0.187500 0.500000
vt 0.156250 1.000000
vt 0.156250 0.500000
vt 0.125000 1.000000
vt 0.125000 0.500000
vt 0.093750 1.000000
vt 0.093750 0.500000
vt 0.062500 1.000000
vt 0.062500 0.500000
vt 0.296822 0.485388
vt 0.250000 0.490000
vt 0.203178 0.485388
vt 0.158156 0.471731
vt 0.116663 0.449553
vt 0.080294 0.419706
vt 0.050447 0.383337
vt 0.028269 0.341844
vt 0.014612 0.296822
vt 0.010000 0.250000
vt 0.014612 0.203178
vt 0.028269 0.158156
vt 0.050447 0.116663
vt 0.080294 0.080294
vt 0.116663 0.050447
vt 0.158156 0.028269
vt 0.203178 0.014612
vt 0.250000 0.010000
vt 0.296822 0.014612
vt 0.341844 0.028269
vt 0.383337 0.050447
vt 0.419706 0.080294
vt 0.449553 0.116663
vt 0.471731 0.158156
vt 0.485388 0.203178
vt 0.490000 0.250000
vt 0.485388 0.296822
vt 0.471731 0.341844
vt 0.449553 0.383337
vt 0.419706 0.419706
vt 0.383337 0.449553
vt 0.341844 0.471731
vt 0.031250 1.000000
vt 0.031250 0.500000
vt 0.000000 1.000000
vt 0.000000 0.500000
vt 0.750000 0.500000
vt 0.781250 0.500000
vt 0.281250 0.500000
vt 0.250000 0.500000
vt 0.250000 0.500000
vt 0.281250 0.500000
vt 0.468750 0.500000
vt 0.500000 0.500000
vt 0.187500 0.500000
vt 0.218750 0.500000
vt 0.875000 0.500000
vt 0.906250 0.500000
vt 0.593750 0.500000
vt 0.625000 0.500000
vt 0.312500 0.500000
vt 0.343750 0.500000
vt 0.031250 0.500000
vt 0.062500 0.500000
vt 0.718750 0.500000
vt 0.437500 0.500000
vt 0.156250 0.500000
vt 0.843750 0.500000
vt 0.562500 0.500000
vt 0.968750 0.500000
vt 1.000000 0.500000
vt 0.000000 0.500000
vt 0.687500 0.500000
vt 0.406250 0.500000
vt 0.125000 0.500000
vt 0.812500 0.500000
vt 0.531250 0.500000
vt 0.937500 0.500000
vt 0.656250 0.500000
vt 0.375000 0.500000
vt 0.093750 0.500000
vt 0.750000 0.490000
vt 0.796822 0.485388
vt 0.841844 0.471731
vt 0.883337 0.449553
vt 0.919706 0.419706
vt 0.949553 0.383337
vt 0.971731 0.341844
vt 0.985388 0.296822
vt 0.990000 0.250000
vt 0.985388 0.203178
vt 0.971731 0.158156
vt 0.949553 0.116663
vt 0.919706 0.080294
vt 0.883337 0.050447
vt 0.841844 0.028269
vt 0.796822 0.014612
vt 0.750000 0.010000
vt 0.703178 0.014612
vt 0.658156 0.028269
vt 0.616663 0.050447
vt 0.580294 0.080294
vt 0.550447 0.116663
vt 0.528269 0.158156
vt 0.514612 0.203178
vt 0.510000 0.250000
vt 0.514612 0.296822
vt 0.528269 0.341844
vt 0.550447 0.383337
vt 0.580294 0.419706
vt 0.616663 0.449553
vt 0.658156 0.471731
vt 0.703178 0.485388
vt 0.656250 0.500000
vt 0.687500 0.500000
vt 0.218750 0.500000
vt 0.625000 0.500000
vt 0.187500 0.500000
vt 0.593750 0.500000
vt 0.156250 0.500000
vt 0.562500 0.500000
vt 0.968750 0.500000
vt 1.000000 0.500000
vt 0.125000 0.500000
vt 0.531250 0.500000
vt 0.937500 0.500000
vt 0.093750 0.500000
vt 0.500000 0.500000
vt 0.906250 0.500000
vt 0.062500 0.500000
vt 0.468750 0.500000
vt 0.875000 0.500000
vt 0.031250 0.500000
vt 0.437500 0.500000
vt 0.843750 0.500000
vt 0.000000 0.500000
vt 0.406250 0.500000
vt 0.812500 0.500000
vt 0.375000 0.500000
vt 0.781250 0.500000
vt 0.343750 0.500000
vt 0.750000 0.500000
vt 0.312500 0.500000
vt 0.718750 0.500000
vn 0.0980 0.0000 -0.9952
vn 0.2903 0.0000 -0.9569
vn 0.4714 0.0000 -0.8819
vn 0.6344 0.0000 -0.7730
vn 0.7730 0.0000 -0.6344
vn 0.8819 0.0000 -0.4714
vn 0.9569 0.0000 -0.2903
vn 0.9952 0.0000 -0.0980
vn 0.9952 0.0000 0.0980
vn 0.9569 0.0000 0.2903
vn 0.8819 0.0000 0.4714
vn 0.7730 0.0000 0.6344
vn 0.6344 0.0000 0.7730
vn 0.4714 0.0000 0.8819
vn 0.2903 0.0000 0.9569
vn 0.0980 0.0000 0.9952
vn -0.0980 0.0000 0.9952
vn -0.2903 0.0000 0.9569
vn -0.4714 0.0000 0.8819
vn -0.6344 0.0000 0.7730
vn -0.7730 0.0000 0.6344
vn -0.8819 0.0000 0.4714
vn -0.9569 0.0000 0.2903
vn -0.9952 0.0000 0.0980
vn -0.9952 0.0000 -0.0980
vn -0.9569 0.0000 -0.2903
vn -0.8819 0.0000 -0.4714
vn -0.7730 0.0000 -0.6344
vn -0.6344 0.0000 -0.7730
vn -0.4714 0.0000 -0.8819
vn 0.0000 1.0000 0.0000
vn -0.2903 0.0000 -0.9569
vn -0.0980 0.0000 -0.9952
vn 0.0995 0.9950 -0.0098
vn -0.0098 0.9950 0.0995
vn -0.0957 0.9950 -0.0290
vn 0.0634 0.9950 -0.0773
vn 0.0634 0.9950 0.0773
vn -0.0882 0.9950 0.0471
vn -0.0290 0.9950 -0.0957
vn 0.0995 0.9950 0.0098
vn -0.0290 0.9950 0.0957
vn -0.0882 0.9950 -0.0471
vn 0.0773 0.9950 -0.0634
vn 0.0471 0.9950 0.0882
vn -0.0957 0.9950 0.0290
vn 0.0098 0.9950 -0.0995
vn -0.0098 0.9950 -0.0995
vn 0.0957 0.9950 0.0290
vn -0.0471 0.9950 0.0882
vn -0.0773 0.9950 -0.0634
vn 0.0882 0.9950 -0.0471
vn 0.0290 0.9950 0.0957
vn -0.0995 0.9950 0.0098
vn 0.0290 0.9950 -0.0957
vn 0.0882 0.9950 0.0471
vn -0.0634 0.9950 0.0773
vn -0.0634 0.9950 -0.0773
vn 0.0957 0.9950 -0.0290
vn 0.0098 0.9950 0.0995
vn -0.0995 0.9950 -0.0098
vn 0.0471 0.9950 -0.0882
vn 0.0773 0.9950 0.0634
vn -0.0773 0.9950 0.0634
vn -0.0471 0.9950 -0.0882
vn 0.0000 -1.0000 0.0000
usemtl None
s off
f 1/1/1 2/2/1 4/3/1 3/4/1
f 3/4/2 4/3/2 6/5/2 5/6/2
f 5/6/3 6/5/3 8/7/3 7/8/3
f 7/8/4 8/7/4 10/9/4 9/10/4
f 9/10/5 10/9/5 12/11/5 11/12/5
f 11/12/6 12/11/6 14/13/6 13/14/6
f 13/14/7 14/13/7 16/15/7 15/16/7
f 15/16/8 16/15/8 18/17/8 17/18/8
f 17/18/9 18/17/9 20/19/9 19/20/9
f 19/20/10 20/19/10 22/21/10 21/22/10
f 21/22/11 22/21/11 24/23/11 23/24/11
f 23/24/12 24/23/12 26/25/12 25/26/12
f 25/26/13 26/25/13 28/27/13 27/28/13
f 27/28/14 28/27/14 30/29/14 29/30/14
f 29/30/15 30/29/15 32/31/15 31/32/15
f 31/32/16 32/31/16 34/33/16 33/34/16
f 33/34/17 34/33/17 36/35/17 35/36/17
f 35/36/18 36/35/18 38/37/18 37/38/18
f 37/38/19 38/37/19 40/39/19 39/40/19
f 39/40/20 40/39/20 42/41/20 41/42/20
f 41/42/21 42/41/21 44/43/21 43/44/21
f 43/44/22 44/43/22 46/45/22 45/46/22
f 45/46/23 46/45/23 48/47/23 47/48/23
f 47/48/24 48/47/24 50/49/24 49/50/24
f 49/50/25 50/49/25 52/51/25 51/52/25
f 51/52/26 52/51/26 54/53/26 53/54/26
f 53/54/27 54/53/27 56/55/27 55/56/27
f 55/56/28 56/55/28 58/57/28 57/58/28
f 57/58/29 58/57/29 60/59/29 59/60/29
f 59/60/30 60/59/30 62/61/30 61/62/30
f 4/63/31 2/64/31 64/65/31 62/66/31 60/67/31 58/68/31 56/69/31 54/70/31 52/71/31 50/72/31 48/73/31 46/74/31 44/75/31 42/76/31 40/77/31 38/78/31 36/79/31 34/80/31 32/81/31 30/82/31 28/83/31 26/84/31 24/85/31 22/86/31 20/87/31 18/88/31 16/89/31 14/90/31 12/91/31 10/92/31 8/93/31 6/94/31
f 61/62/32 62/61/32 64/95/32 63/96/32
f 63/96/33 64/95/33 2/97/33 1/98/33
f 15/16/34 17/18/34 73/99/34 72/100/34
f 88/101/24 89/102/24 121/103/24 120/104/24
f 33/34/35 35/36/35 82/105/35 81/106/35
f 51/52/36 53/54/36 91/107/36 90/108/36
f 7/8/37 9/10/37 69/109/37 68/110/37
f 25/26/38 27/28/38 78/111/38 77/112/38
f 43/44/39 45/46/39 87/113/39 86/114/39
f 61/62/40 63/96/40 96/115/40 95/116/40
f 17/18/41 19/20/41 74/117/41 73/99/41
f 35/36/42 37/38/42 83/118/42 82/105/42
f 53/54/43 55/56/43 92/119/43 91/107/43
f 9/10/44 11/12/44 70/120/44 69/109/44
f 27/28/45 29/30/45 79/121/45 78/111/45
f 45/46/46 47/48/46 88/101/46 87/113/46
f 1/1/47 3/4/47 66/122/47 65/123/47
f 63/96/48 1/98/48 65/124/48 96/115/48
f 19/20/49 21/22/49 75/125/49 74/117/49
f 37/38/50 39/40/50 84/126/50 83/118/50
f 55/56/51 57/58/51 93/127/51 92/119/51
f 11/12/52 13/14/52 71/128/52 70/120/52
f 29/30/53 31/32/53 80/129/53 79/121/53
f 47/48/54 49/50/54 89/102/54 88/101/54
f 3/4/55 5/6/55 67/130/55 66/122/55
f 21/22/56 23/24/56 76/131/56 75/125/56
f 39/40/57 41/42/57 85/132/57 84/126/57
f 57/58/58 59/60/58 94/133/58 93/127/58
f 13/14/59 15/16/59 72/100/59 71/128/59
f 31/32/60 33/34/60 81/106/60 80/129/60
f 49/50/61 51/52/61 90/108/61 89/102/61
f 5/6/62 7/8/62 68/110/62 67/130/62
f 23/24/63 25/26/63 77/112/63 76/131/63
f 41/42/64 43/44/64 86/114/64 85/132/64
f 59/60/65 61/62/65 95/116/65 94/133/65
f 97/134/66 98/135/66 99/136/66 100/137/66 101/138/66 102/139/66 103/140/66 104/141/66 105/142/66 106/143/66 107/144/66 108/145/66 109/146/66 110/147/66 111/148/66 112/149/66 113/150/66 114/151/66 115/152/66 116/153/66 117/154/66 118/155/66 119/156/66 120/157/66 121/158/66 122/159/66 123/160/66 124/161/66 125/162/66 126/163/66 127/164/66 128/165/66
f 75/125/11 76/131/11 108/166/11 107/167/11
f 89/102/25 90/108/25 122/168/25 121/103/25
f 76/131/12 77/112/12 109/169/12 108/166/12
f 90/108/26 91/107/26 123/170/26 122/168/26
f 77/112/13 78/111/13 110/171/13 109/169/13
f 91/107/27 92/119/27 124/172/27 123/170/27
f 78/111/14 79/121/14 111/173/14 110/171/14
f 65/123/1 66/122/1 98/174/1 97/175/1
f 92/119/28 93/127/28 125/176/28 124/172/28
f 79/121/15 80/129/15 112/177/15 111/173/15
f 66/122/2 67/130/2 99/178/2 98/174/2
f 93/127/29 94/133/29 126/179/29 125/176/29
f 80/129/16 81/106/16 113/180/16 112/177/16
f 67/130/3 68/110/3 100/181/3 99/178/3
f 94/133/30 95/116/30 127/182/30 126/179/30
f 81/106/17 82/105/17 114/183/17 113/180/17
f 68/110/4 69/109/4 101/184/4 100/181/4
f 95/116/32 96/115/32 128/185/32 127/182/32
f 82/105/18 83/118/18 115/186/18 114/183/18
f 69/109/5 70/120/5 102/187/5 101/184/5
f 96/115/33 65/124/33 97/188/33 128/185/33
f 83/118/19 84/126/19 116/189/19 115/186/19
f 70/120/6 71/128/6 103/190/6 102/187/6
f 84/126/20 85/132/20 117/191/20 116/189/20
f 71/128/7 72/100/7 104/192/7 103/190/7
f 85/132/21 86/114/21 118/193/21 117/191/21
f 72/100/8 73/99/8 105/194/8 104/192/8
f 86/114/22 87/113/22 119/195/22 118/193/22
f 73/99/9 74/117/9 106/196/9 105/194/9
f 87/113/23 88/101/23 120/104/23 119/195/23
f 74/117/10 75/125/10 107/167/10 106/196/10
