# Blender 4.1.0
# www.blender.org
mtllib arrow.mtl
o Cylinder
v 0.750000 9.000000 -0.000001
v 0.375000 9.000000 -0.649519
v -0.375000 9.000000 -0.649519
v -0.750000 9.000000 -0.000001
v -0.375000 9.000000 0.649518
v 0.375000 9.000000 0.649518
v 0.750000 -9.000000 0.000001
v 0.375000 -9.000000 -0.649518
v -0.375000 -9.000000 -0.649518
v -0.750000 -9.000000 0.000001
v -0.375000 -9.000000 0.649519
v 0.375000 -9.000000 0.649519
vn -0.0000 1.0000 -0.0000
vn 0.8660 -0.0000 -0.5000
vn -0.0000 -0.0000 -1.0000
vn -0.8660 -0.0000 -0.5000
vn -0.8660 -0.0000 0.5000
vn -0.0000 -0.0000 1.0000
vn 0.8660 -0.0000 0.5000
vn -0.0000 -1.0000 -0.0000
s 0
usemtl Material.001
f 1//1 2//1 3//1 4//1 5//1 6//1
f 1//2 7//2 8//2 2//2
f 2//3 8//3 9//3 3//3
f 3//4 9//4 10//4 4//4
f 4//5 10//5 11//5 5//5
f 5//6 11//6 12//6 6//6
f 6//7 12//7 7//7 1//7
f 12//8 11//8 10//8 9//8 8//8 7//8
o Cone
v 0.000000 12.600000 -0.000000
v 1.200000 9.000000 0.000000
v 0.600000 9.000000 -1.039230
v -0.600000 9.000000 -1.039230
v -1.200000 9.000000 0.000000
v -0.600000 9.000000 1.039230
v 0.600000 9.000000 1.039230
vn 0.8321 0.2773 -0.4804
vn -0.0000 0.2773 -0.9608
vn -0.8321 0.2773 -0.4804
vn -0.8321 0.2774 0.4804
vn -0.0000 0.2774 0.9608
vn 0.8321 0.2774 0.4804
vn -0.0000 -1.0000 -0.0000
s 0
usemtl Material.002
f 14//9 15//9 13//9
f 15//10 16//10 13//10
f 16//11 17//11 13//11
f 17//12 18//12 13//12
f 18//13 19//13 13//13
f 19//14 14//14 13//14
f 19//15 18//15 17//15 16//15 15//15 14//15
o Cube
v 0.200000 -8.000000 -1.800000
v 0.200000 -11.000000 -1.800000
v 0.200000 -8.000000 -0.600000
v -0.200000 -8.000000 -1.800000
v -0.200000 -11.000000 -1.800000
v -0.200000 -8.000000 -0.600000
v 0.200000 -9.800000 -0.600000
v -0.200000 -9.800000 -0.600000
v 0.200000 -11.750000 -1.800000
v -0.200000 -11.750000 -1.800000
v 0.200000 -10.495406 -0.878162
v -0.200000 -10.495406 -0.878162
v 0.200000 -11.750000 -1.800000
v -0.200000 -11.750000 -1.800000
vn -0.0000 1.0000 -0.0000
vn -0.0000 -0.0000 -1.0000
vn -0.0004 1.0000 -0.0000
vn -1.0000 -0.0000 -0.0000
vn -0.0000 -0.0000 1.0000
vn 1.0000 -0.0000 -0.0000
vn -0.0000 -0.3714 0.9285
vn -0.0000 -0.5921 0.8059
vt 0.625000 0.500000
vt 0.875000 0.500000
vt 0.875000 0.750000
vt 0.625000 0.750000
vt 0.125000 0.500000
vt 0.375000 0.500000
vt 0.375000 0.057950
vt 0.375000 0.250000
vt 0.475000 0.750000
vt 0.625000 1.000000
vt 0.475000 1.000000
vt 0.625000 0.250000
vt 0.417050 0.692050
vt 0.375000 0.692050
vt 0.125000 0.692050
vt 0.375000 0.750000
vt 0.125000 0.750000
vt 0.417050 0.057950
vt 0.475000 0.000000
vt 0.625000 0.000000
s 0
usemtl Material.003
f 20/1/16 23/2/16 25/3/16 22/4/16
f 29/5/16 28/6/17 32/6/18 33/5/17
f 31/7/19 24/8/19 29/8/19 33/8/19
f 26/9/20 22/4/20 25/10/20 27/11/20
f 24/8/17 23/12/17 20/1/17 21/6/17
f 21/6/21 20/1/21 22/4/21 26/9/21 30/13/21
f 21/6/21 30/14/21 32/6/21 28/6/21
f 31/15/22 30/14/22 26/16/22 27/17/22
f 24/8/17 21/6/17 28/6/17 29/8/17
f 31/18/19 27/19/19 25/20/19 23/12/19 24/8/19
f 30/14/23 31/7/23 33/5/23 32/6/23
o Cube.001
v -0.200000 -8.000000 1.800000
v -0.200000 -11.000000 1.800000
v -0.200000 -8.000000 0.600000
v 0.200000 -8.000000 1.800000
v 0.200000 -11.000000 1.800000
v 0.200000 -8.000000 0.600000
v -0.200000 -9.800000 0.600000
v 0.200000 -9.800000 0.600000
v -0.200000 -11.750000 1.800000
v 0.200000 -11.750000 1.800000
v -0.200000 -10.495406 0.878162
v 0.200000 -10.495406 0.878162
v -0.200000 -11.750000 1.800000
v 0.200000 -11.750000 1.800000
vn -0.0000 1.0000 -0.0000
vn -0.0000 -0.0000 1.0000
vn 0.0004 1.0000 -0.0000
vn 1.0000 -0.0000 -0.0000
vn -0.0000 -0.0000 -1.0000
vn -1.0000 -0.0000 -0.0000
vn -0.0000 -0.3714 -0.9285
vn -0.0000 -0.5921 -0.8059
vt 0.625000 0.500000
vt 0.875000 0.500000
vt 0.875000 0.750000
vt 0.625000 0.750000
vt 0.125000 0.500000
vt 0.375000 0.500000
vt 0.375000 0.057950
vt 0.375000 0.250000
vt 0.475000 0.750000
vt 0.625000 1.000000
vt 0.475000 1.000000
vt 0.625000 0.250000
vt 0.417050 0.692050
vt 0.375000 0.692050
vt 0.125000 0.692050
vt 0.375000 0.750000
vt 0.125000 0.750000
vt 0.417050 0.057950
vt 0.475000 0.000000
vt 0.625000 0.000000
s 0
usemtl Material.004
f 34/21/24 37/22/24 39/23/24 36/24/24
f 43/25/24 42/26/25 46/26/26 47/25/25
f 45/27/27 38/28/27 43/28/27 47/28/27
f 40/29/28 36/24/28 39/30/28 41/31/28
f 38/28/25 37/32/25 34/21/25 35/26/25
f 35/26/29 34/21/29 36/24/29 40/29/29 44/33/29
f 35/26/29 44/34/29 46/26/29 42/26/29
f 45/35/30 44/34/30 40/36/30 41/37/30
f 38/28/25 35/26/25 42/26/25 43/28/25
f 45/38/27 41/39/27 39/40/27 37/32/27 38/28/27
f 44/34/31 45/27/31 47/25/31 46/26/31
