# Blender 4.1.0
# www.blender.org
mtllib thingy.mtl
o Cylinder
v 1.000000 1.325000 0.000000
v 0.500000 1.325000 -0.866025
v -0.500000 1.325000 -0.866025
v -1.000000 1.325000 0.000000
v -0.500000 1.325000 0.866025
v 0.500000 1.325000 0.866025
v 1.000000 -1.325000 0.000000
v 0.500000 -1.325000 -0.866025
v -0.500000 -1.325000 -0.866025
v -1.000000 -1.325000 0.000000
v -0.500000 -1.325000 0.866025
v 0.500000 -1.325000 0.866025
v 1.000000 0.925000 0.000000
v 0.500000 0.925000 -0.866025
v -0.500000 0.925000 -0.866025
v -1.000000 0.925000 0.000000
v -0.500000 0.925000 0.866025
v 0.500000 0.925000 0.866025
v 0.653590 1.325000 0.200000
v 0.653590 -1.325000 0.200000
v 0.153590 -1.325000 -0.666025
v 0.153590 1.325000 -0.666025
v 0.500000 1.325000 -0.466025
v 0.500000 -1.325000 -0.466025
v -0.500000 -1.325000 -0.466025
v -0.500000 1.325000 -0.466025
v -0.153590 1.325000 -0.666025
v -0.153590 -1.325000 -0.666025
v -0.653590 -1.325000 0.200000
v -0.653590 1.325000 0.200000
v -0.653590 1.325000 -0.200000
v -0.653590 -1.325000 -0.200000
v -0.153590 -1.325000 0.666025
v -0.153590 1.325000 0.666025
v -0.500000 1.325000 0.466025
v -0.500000 -1.325000 0.466025
v 0.500000 -1.325000 0.466025
v 0.500000 1.325000 0.466025
v 0.153590 1.325000 0.666025
v 0.153590 -1.325000 0.666025
v 0.653590 -1.325000 -0.200000
v 0.653590 1.325000 -0.200000
v 0.500000 -0.925000 0.866025
v -0.500000 -0.925000 0.866025
v -1.000000 -0.925000 0.000000
v -0.500000 -0.925000 -0.866025
v 0.500000 -0.925000 -0.866025
v 1.000000 -0.925000 0.000000
v 1.000000 0.825000 0.000000
v 0.500000 0.825000 -0.866025
v -0.500000 0.825000 -0.866025
v -1.000000 0.825000 0.000000
v -0.500000 0.825000 0.866025
v 0.500000 0.825000 0.866025
v 0.566987 1.325000 0.250000
v 0.566987 -1.325000 0.250000
v 0.066987 -1.325000 -0.616025
v 0.066987 1.325000 -0.616025
v 0.500000 1.325000 -0.366025
v 0.500000 -1.325000 -0.366025
v -0.500000 -1.325000 -0.366025
v -0.500000 1.325000 -0.366025
v -0.066987 1.325000 -0.616025
v -0.066987 -1.325000 -0.616025
v -0.566987 -1.325000 0.250000
v -0.566987 1.325000 0.250000
v -0.566987 1.325000 -0.250000
v -0.566987 -1.325000 -0.250000
v -0.066987 -1.325000 0.616025
v -0.066987 1.325000 0.616025
v -0.500000 1.325000 0.366025
v -0.500000 -1.325000 0.366025
v 0.500000 -1.325000 0.366025
v 0.500000 1.325000 0.366025
v 0.066987 1.325000 0.616025
v 0.066987 -1.325000 0.616025
v 0.566987 -1.325000 -0.250000
v 0.566987 1.325000 -0.250000
v 0.500000 -0.825000 0.866025
v -0.500000 -0.825000 0.866025
v -1.000000 -0.825000 0.000000
v -0.500000 -0.825000 -0.866025
v 0.500000 -0.825000 -0.866025
v 1.000000 -0.825000 0.000000
v 0.586602 0.925000 -0.916025
v 1.086602 0.925000 -0.050000
v 1.086602 1.325000 -0.050000
v 0.586602 1.325000 -0.916025
v -0.500000 0.925000 -0.966025
v 0.500000 0.925000 -0.966025
v 0.500000 1.325000 -0.966025
v -0.500000 1.325000 -0.966025
v -1.086602 0.925000 -0.050000
v -0.586603 0.925000 -0.916025
v -0.586603 1.325000 -0.916025
v -1.086602 1.325000 -0.050000
v -0.586602 0.925000 0.916025
v -1.086602 0.925000 0.050000
v -1.086602 1.325000 0.050000
v -0.586602 1.325000 0.916025
v 0.500000 0.925000 0.966025
v -0.500000 0.925000 0.966025
v -0.500000 1.325000 0.966025
v 0.500000 1.325000 0.966025
v 1.086602 0.925000 0.050000
v 0.586602 0.925000 0.916025
v 0.586602 1.325000 0.916025
v 1.086602 1.325000 0.050000
v 0.703590 -1.325000 0.286603
v 0.703590 1.325000 0.286603
v 1.050000 1.325000 0.086603
v 1.050000 -1.325000 0.086603
v 0.153590 -1.425000 -0.666025
v 0.653590 -1.425000 0.200000
v 1.000000 -1.425000 0.000000
v 0.500000 -1.425000 -0.866025
v 0.103590 1.325000 -0.752628
v 0.103590 -1.325000 -0.752628
v 0.450000 -1.325000 -0.952628
v 0.450000 1.325000 -0.952628
v 0.653590 1.425000 0.200000
v 0.153590 1.425000 -0.666025
v 0.500000 1.425000 -0.866025
v 1.000000 1.425000 0.000000
v 0.600000 -1.325000 -0.466025
v 0.600000 1.325000 -0.466025
v 0.600000 1.325000 -0.866025
v 0.600000 -1.325000 -0.866025
v -0.500000 -1.425000 -0.466025
v 0.500000 -1.425000 -0.466025
v 0.500000 -1.425000 -0.866025
v -0.500000 -1.425000 -0.866025
v -0.600000 1.325000 -0.466025
v -0.600000 -1.325000 -0.466025
v -0.600000 -1.325000 -0.866025
v -0.600000 1.325000 -0.866025
v 0.500000 1.425000 -0.466025
v -0.500000 1.425000 -0.466025
v -0.500000 1.425000 -0.866025
v 0.500000 1.425000 -0.866025
v -0.103590 -1.325000 -0.752628
v -0.103590 1.325000 -0.752628
v -0.450000 1.325000 -0.952628
v -0.450000 -1.325000 -0.952628
v -0.653590 -1.425000 0.200000
v -0.153590 -1.425000 -0.666025
v -0.500000 -1.425000 -0.866025
v -1.000000 -1.425000 0.000000
v -0.703590 1.325000 0.286603
v -0.703590 -1.325000 0.286603
v -1.050000 -1.325000 0.086603
v -1.050000 1.325000 0.086603
v -0.153590 1.425000 -0.666025
v -0.653590 1.425000 0.200000
v -1.000000 1.425000 0.000000
v -0.500000 1.425000 -0.866025
v -0.703590 -1.325000 -0.286602
v -0.703590 1.325000 -0.286602
v -1.050000 1.325000 -0.086602
v -1.050000 -1.325000 -0.086602
v -0.153590 -1.425000 0.666025
v -0.653590 -1.425000 -0.200000
v -1.000000 -1.425000 0.000000
v -0.500000 -1.425000 0.866025
v -0.103590 1.325000 0.752628
v -0.103590 -1.325000 0.752628
v -0.450000 -1.325000 0.952628
v -0.450000 1.325000 0.952628
v -0.653590 1.425000 -0.200000
v -0.153590 1.425000 0.666025
v -0.500000 1.425000 0.866025
v -1.000000 1.425000 0.000000
v -0.600000 -1.325000 0.466025
v -0.600000 1.325000 0.466025
v -0.600000 1.325000 0.866025
v -0.600000 -1.325000 0.866025
v 0.500000 -1.425000 0.466025
v -0.500000 -1.425000 0.466025
v -0.500000 -1.425000 0.866025
v 0.500000 -1.425000 0.866025
v 0.600000 1.325000 0.466025
v 0.600000 -1.325000 0.466025
v 0.600000 -1.325000 0.866025
v 0.600000 1.325000 0.866025
v -0.500000 1.425000 0.466025
v 0.500000 1.425000 0.466025
v 0.500000 1.425000 0.866025
v -0.500000 1.425000 0.866025
v 0.103590 -1.325000 0.752628
v 0.103590 1.325000 0.752628
v 0.450000 1.325000 0.952628
v 0.450000 -1.325000 0.952628
v 0.653590 -1.425000 -0.200000
v 0.153590 -1.425000 0.666025
v 0.500000 -1.425000 0.866025
v 1.000000 -1.425000 0.000000
v 0.703590 1.325000 -0.286603
v 0.703590 -1.325000 -0.286603
v 1.050000 -1.325000 -0.086603
v 1.050000 1.325000 -0.086603
v 0.153590 1.425000 0.666025
v 0.653590 1.425000 -0.200000
v 1.000000 1.425000 0.000000
v 0.500000 1.425000 0.866025
v -0.500000 -0.925000 0.966025
v 0.500000 -0.925000 0.966025
v 0.500000 -1.325000 0.966025
v -0.500000 -1.325000 0.966025
v -1.086602 -0.925000 0.050000
v -0.586602 -0.925000 0.916025
v -0.586602 -1.325000 0.916025
v -1.086602 -1.325000 0.050000
v -0.586603 -0.925000 -0.916025
v -1.086602 -0.925000 -0.050000
v -1.086602 -1.325000 -0.050000
v -0.586603 -1.325000 -0.916025
v 0.500000 -0.925000 -0.966025
v -0.500000 -0.925000 -0.966025
v -0.500000 -1.325000 -0.966025
v 0.500000 -1.325000 -0.966025
v 1.086602 -0.925000 -0.050000
v 0.586602 -0.925000 -0.916025
v 0.586602 -1.325000 -0.916025
v 1.086602 -1.325000 -0.050000
v 0.586602 -0.925000 0.916025
v 1.086602 -0.925000 0.050000
v 1.086602 -1.325000 0.050000
v 0.586602 -1.325000 0.916025
vn -0.0000 1.0000 -0.0000
vn 0.8660 -0.0000 -0.5000
vn -0.0000 -0.0000 -1.0000
vn -0.8660 -0.0000 -0.5000
vn -0.8660 -0.0000 0.5000
vn -0.0000 -0.0000 1.0000
vn 0.8660 -0.0000 0.5000
vn -0.0000 -1.0000 -0.0000
vn -0.5000 -0.0000 -0.8660
vn 0.5000 -0.0000 0.8660
vn -1.0000 -0.0000 -0.0000
vn 1.0000 -0.0000 -0.0000
vn -0.5000 -0.0000 0.8660
vn 0.5000 -0.0000 -0.8660
s 0
usemtl 
f 50//1 52//1 54//1
f 56//2 58//2 55//2
f 60//3 62//3 59//3
f 64//4 66//4 63//4
f 68//5 70//5 67//5
f 72//6 74//6 71//6
f 76//7 78//7 75//7
f 80//8 82//8 84//8
f 86//5 88//5 85//5
f 90//6 92//6 89//6
f 94//7 96//7 93//7
f 98//2 100//2 97//2
f 102//3 104//3 101//3
f 106//4 108//4 105//4
f 110//9 112//9 109//9
f 113//1 115//1 116//1
f 118//10 120//10 117//10
f 122//8 124//8 121//8
f 126//11 128//11 125//11
f 130//1 132//1 129//1
f 134//12 136//12 133//12
f 137//8 139//8 140//8
f 142//13 144//13 141//13
f 146//1 148//1 145//1
f 150//14 152//14 149//14
f 154//8 156//8 153//8
f 158//10 160//10 157//10
f 162//1 164//1 161//1
f 166//9 168//9 165//9
f 170//8 172//8 169//8
f 174//12 176//12 173//12
f 178//1 180//1 177//1
f 182//11 184//11 181//11
f 186//8 188//8 185//8
f 190//14 192//14 189//14
f 194//1 196//1 193//1
f 198//13 200//13 197//13
f 202//8 204//8 201//8
f 205//3 207//3 208//3
f 210//2 212//2 209//2
f 214//7 216//7 213//7
f 218//6 220//6 217//6
f 222//5 224//5 221//5
f 226//4 228//4 225//4
f 49//5 14//5 50//5
f 50//6 15//6 51//6
f 51//7 16//7 52//7
f 52//2 17//2 53//2
f 53//3 18//3 54//3
f 54//4 13//4 49//4
f 55//9 20//9 56//9
f 57//1 20//1 21//1
f 57//10 22//10 58//10
f 58//8 19//8 55//8
f 59//11 24//11 60//11
f 60//1 25//1 61//1
f 61//12 26//12 62//12
f 62//8 23//8 59//8
f 63//13 28//13 64//13
f 64//1 29//1 65//1
f 65//14 30//14 66//14
f 63//8 30//8 27//8
f 67//10 32//10 68//10
f 69//1 32//1 33//1
f 69//9 34//9 70//9
f 70//8 31//8 67//8
f 71//12 36//12 72//12
f 72//1 37//1 73//1
f 73//11 38//11 74//11
f 74//8 35//8 71//8
f 75//14 40//14 76//14
f 77//1 40//1 41//1
f 77//13 42//13 78//13
f 78//8 39//8 75//8
f 79//3 44//3 80//3
f 80//2 45//2 81//2
f 81//7 46//7 82//7
f 82//6 47//6 83//6
f 83//5 48//5 84//5
f 84//4 43//4 79//4
f 85//1 13//1 86//1
f 86//9 1//9 87//9
f 88//8 1//8 2//8
f 88//10 14//10 85//10
f 89//1 14//1 90//1
f 90//11 2//11 91//11
f 91//8 3//8 92//8
f 92//12 15//12 89//12
f 93//1 15//1 94//1
f 94//13 3//13 95//13
f 96//8 3//8 4//8
f 96//14 16//14 93//14
f 98//1 17//1 16//1
f 98//10 4//10 99//10
f 100//8 4//8 5//8
f 100//9 17//9 97//9
f 101//1 17//1 102//1
f 102//12 5//12 103//12
f 103//8 6//8 104//8
f 104//11 18//11 101//11
f 106//1 13//1 18//1
f 106//14 6//14 107//14
f 108//8 6//8 1//8
f 108//13 13//13 105//13
f 109//2 19//2 110//2
f 110//8 1//8 111//8
f 111//5 7//5 112//5
f 112//1 20//1 109//1
f 113//2 20//2 114//2
f 114//9 7//9 115//9
f 115//5 8//5 116//5
f 113//10 8//10 21//10
f 117//2 21//2 118//2
f 118//1 8//1 119//1
f 119//5 2//5 120//5
f 117//8 2//8 22//8
f 121//2 22//2 122//2
f 122//10 2//10 123//10
f 123//5 1//5 124//5
f 124//9 19//9 121//9
f 125//3 23//3 126//3
f 126//8 2//8 127//8
f 127//6 8//6 128//6
f 128//1 24//1 125//1
f 129//3 24//3 130//3
f 130//11 8//11 131//11
f 131//6 9//6 132//6
f 132//12 25//12 129//12
f 133//3 25//3 134//3
f 134//1 9//1 135//1
f 135//6 3//6 136//6
f 136//8 26//8 133//8
f 137//3 26//3 138//3
f 138//12 3//12 139//12
f 139//6 2//6 140//6
f 140//11 23//11 137//11
f 141//4 27//4 142//4
f 143//8 27//8 3//8
f 143//7 9//7 144//7
f 144//1 28//1 141//1
f 145//4 28//4 146//4
f 146//13 9//13 147//13
f 147//7 10//7 148//7
f 148//14 29//14 145//14
f 149//4 29//4 150//4
f 151//1 29//1 10//1
f 151//7 4//7 152//7
f 152//8 30//8 149//8
f 153//4 30//4 154//4
f 154//14 4//14 155//14
f 155//7 3//7 156//7
f 156//13 27//13 153//13
f 157//5 31//5 158//5
f 158//8 4//8 159//8
f 159//2 10//2 160//2
f 157//1 10//1 32//1
f 161//5 32//5 162//5
f 162//10 10//10 163//10
f 163//2 11//2 164//2
f 164//9 33//9 161//9
f 165//5 33//5 166//5
f 166//1 11//1 167//1
f 167//2 5//2 168//2
f 165//8 5//8 34//8
f 169//5 34//5 170//5
f 170//9 5//9 171//9
f 171//2 4//2 172//2
f 172//10 31//10 169//10
f 173//6 35//6 174//6
f 174//8 5//8 175//8
f 175//3 11//3 176//3
f 176//1 36//1 173//1
f 177//6 36//6 178//6
f 178//12 11//12 179//12
f 179//3 12//3 180//3
f 180//11 37//11 177//11
f 181//6 37//6 182//6
f 182//1 12//1 183//1
f 183//3 6//3 184//3
f 184//8 38//8 181//8
f 185//6 38//6 186//6
f 186//11 6//11 187//11
f 187//3 5//3 188//3
f 188//12 35//12 185//12
f 189//7 39//7 190//7
f 190//8 6//8 191//8
f 191//4 12//4 192//4
f 189//1 12//1 40//1
f 193//7 40//7 194//7
f 194//14 12//14 195//14
f 195//4 7//4 196//4
f 196//13 41//13 193//13
f 197//7 41//7 198//7
f 198//1 7//1 199//1
f 199//4 1//4 200//4
f 200//8 42//8 197//8
f 201//7 42//7 202//7
f 202//13 1//13 203//13
f 204//4 1//4 6//4
f 204//14 39//14 201//14
f 205//8 43//8 206//8
f 206//11 12//11 207//11
f 207//1 11//1 208//1
f 208//12 44//12 205//12
f 210//8 45//8 44//8
f 210//9 11//9 211//9
f 212//1 11//1 10//1
f 212//10 45//10 209//10
f 214//8 46//8 45//8
f 214//14 10//14 215//14
f 215//1 9//1 216//1
f 216//13 46//13 213//13
f 217//8 46//8 218//8
f 218//12 9//12 219//12
f 219//1 8//1 220//1
f 220//11 47//11 217//11
f 221//8 47//8 222//8
f 222//10 8//10 223//10
f 223//1 7//1 224//1
f 224//9 48//9 221//9
f 226//8 43//8 48//8
f 226//13 7//13 227//13
f 228//1 7//1 12//1
f 228//14 43//14 225//14
f 54//1 49//1 50//1
f 50//1 51//1 52//1
f 52//1 53//1 54//1
f 56//2 57//2 58//2
f 60//3 61//3 62//3
f 64//4 65//4 66//4
f 68//5 69//5 70//5
f 72//6 73//6 74//6
f 76//7 77//7 78//7
f 84//8 79//8 80//8
f 80//8 81//8 82//8
f 82//8 83//8 84//8
f 86//5 87//5 88//5
f 90//6 91//6 92//6
f 94//7 95//7 96//7
f 98//2 99//2 100//2
f 102//3 103//3 104//3
f 106//4 107//4 108//4
f 110//9 111//9 112//9
f 113//1 114//1 115//1
f 118//10 119//10 120//10
f 122//8 123//8 124//8
f 126//11 127//11 128//11
f 130//1 131//1 132//1
f 134//12 135//12 136//12
f 137//8 138//8 139//8
f 142//13 143//13 144//13
f 146//1 147//1 148//1
f 150//14 151//14 152//14
f 154//8 155//8 156//8
f 158//10 159//10 160//10
f 162//1 163//1 164//1
f 166//9 167//9 168//9
f 170//8 171//8 172//8
f 174//12 175//12 176//12
f 178//1 179//1 180//1
f 182//11 183//11 184//11
f 186//8 187//8 188//8
f 190//14 191//14 192//14
f 194//1 195//1 196//1
f 198//13 199//13 200//13
f 202//8 203//8 204//8
f 205//3 206//3 207//3
f 210//2 211//2 212//2
f 214//7 215//7 216//7
f 218//6 219//6 220//6
f 222//5 223//5 224//5
f 226//4 227//4 228//4
f 49//5 13//5 14//5
f 50//6 14//6 15//6
f 51//7 15//7 16//7
f 52//2 16//2 17//2
f 53//3 17//3 18//3
f 54//4 18//4 13//4
f 55//9 19//9 20//9
f 57//1 56//1 20//1
f 57//10 21//10 22//10
f 58//8 22//8 19//8
f 59//11 23//11 24//11
f 60//1 24//1 25//1
f 61//12 25//12 26//12
f 62//8 26//8 23//8
f 63//13 27//13 28//13
f 64//1 28//1 29//1
f 65//14 29//14 30//14
f 63//8 66//8 30//8
f 67//10 31//10 32//10
f 69//1 68//1 32//1
f 69//9 33//9 34//9
f 70//8 34//8 31//8
f 71//12 35//12 36//12
f 72//1 36//1 37//1
f 73//11 37//11 38//11
f 74//8 38//8 35//8
f 75//14 39//14 40//14
f 77//1 76//1 40//1
f 77//13 41//13 42//13
f 78//8 42//8 39//8
f 79//3 43//3 44//3
f 80//2 44//2 45//2
f 81//7 45//7 46//7
f 82//6 46//6 47//6
f 83//5 47//5 48//5
f 84//4 48//4 43//4
f 85//1 14//1 13//1
f 86//9 13//9 1//9
f 88//8 87//8 1//8
f 88//10 2//10 14//10
f 89//1 15//1 14//1
f 90//11 14//11 2//11
f 91//8 2//8 3//8
f 92//12 3//12 15//12
f 93//1 16//1 15//1
f 94//13 15//13 3//13
f 96//8 95//8 3//8
f 96//14 4//14 16//14
f 98//1 97//1 17//1
f 98//10 16//10 4//10
f 100//8 99//8 4//8
f 100//9 5//9 17//9
f 101//1 18//1 17//1
f 102//12 17//12 5//12
f 103//8 5//8 6//8
f 104//11 6//11 18//11
f 106//1 105//1 13//1
f 106//14 18//14 6//14
f 108//8 107//8 6//8
f 108//13 1//13 13//13
f 109//2 20//2 19//2
f 110//8 19//8 1//8
f 111//5 1//5 7//5
f 112//1 7//1 20//1
f 113//2 21//2 20//2
f 114//9 20//9 7//9
f 115//5 7//5 8//5
f 113//10 116//10 8//10
f 117//2 22//2 21//2
f 118//1 21//1 8//1
f 119//5 8//5 2//5
f 117//8 120//8 2//8
f 121//2 19//2 22//2
f 122//10 22//10 2//10
f 123//5 2//5 1//5
f 124//9 1//9 19//9
f 125//3 24//3 23//3
f 126//8 23//8 2//8
f 127//6 2//6 8//6
f 128//1 8//1 24//1
f 129//3 25//3 24//3
f 130//11 24//11 8//11
f 131//6 8//6 9//6
f 132//12 9//12 25//12
f 133//3 26//3 25//3
f 134//1 25//1 9//1
f 135//6 9//6 3//6
f 136//8 3//8 26//8
f 137//3 23//3 26//3
f 138//12 26//12 3//12
f 139//6 3//6 2//6
f 140//11 2//11 23//11
f 141//4 28//4 27//4
f 143//8 142//8 27//8
f 143//7 3//7 9//7
f 144//1 9//1 28//1
f 145//4 29//4 28//4
f 146//13 28//13 9//13
f 147//7 9//7 10//7
f 148//14 10//14 29//14
f 149//4 30//4 29//4
f 151//1 150//1 29//1
f 151//7 10//7 4//7
f 152//8 4//8 30//8
f 153//4 27//4 30//4
f 154//14 30//14 4//14
f 155//7 4//7 3//7
f 156//13 3//13 27//13
f 157//5 32//5 31//5
f 158//8 31//8 4//8
f 159//2 4//2 10//2
f 157//1 160//1 10//1
f 161//5 33//5 32//5
f 162//10 32//10 10//10
f 163//2 10//2 11//2
f 164//9 11//9 33//9
f 165//5 34//5 33//5
f 166//1 33//1 11//1
f 167//2 11//2 5//2
f 165//8 168//8 5//8
f 169//5 31//5 34//5
f 170//9 34//9 5//9
f 171//2 5//2 4//2
f 172//10 4//10 31//10
f 173//6 36//6 35//6
f 174//8 35//8 5//8
f 175//3 5//3 11//3
f 176//1 11//1 36//1
f 177//6 37//6 36//6
f 178//12 36//12 11//12
f 179//3 11//3 12//3
f 180//11 12//11 37//11
f 181//6 38//6 37//6
f 182//1 37//1 12//1
f 183//3 12//3 6//3
f 184//8 6//8 38//8
f 185//6 35//6 38//6
f 186//11 38//11 6//11
f 187//3 6//3 5//3
f 188//12 5//12 35//12
f 189//7 40//7 39//7
f 190//8 39//8 6//8
f 191//4 6//4 12//4
f 189//1 192//1 12//1
f 193//7 41//7 40//7
f 194//14 40//14 12//14
f 195//4 12//4 7//4
f 196//13 7//13 41//13
f 197//7 42//7 41//7
f 198//1 41//1 7//1
f 199//4 7//4 1//4
f 200//8 1//8 42//8
f 201//7 39//7 42//7
f 202//13 42//13 1//13
f 204//4 203//4 1//4
f 204//14 6//14 39//14
f 205//8 44//8 43//8
f 206//11 43//11 12//11
f 207//1 12//1 11//1
f 208//12 11//12 44//12
f 210//8 209//8 45//8
f 210//9 44//9 11//9
f 212//1 211//1 11//1
f 212//10 10//10 45//10
f 214//8 213//8 46//8
f 214//14 45//14 10//14
f 215//1 10//1 9//1
f 216//13 9//13 46//13
f 217//8 47//8 46//8
f 218//12 46//12 9//12
f 219//1 9//1 8//1
f 220//11 8//11 47//11
f 221//8 48//8 47//8
f 222//10 47//10 8//10
f 223//1 8//1 7//1
f 224//9 7//9 48//9
f 226//8 225//8 43//8
f 226//13 48//13 7//13
f 228//1 227//1 7//1
f 228//14 12//14 43//14
